# Blender v2.93.0 OBJ File: ''
# www.blender.org
mtllib umbrellaOpenAndClodes.mtl
o Circle.001
v -0.285912 1.547472 0.710916
v 0.689212 1.547472 0.307006
v 0.689212 1.547472 -0.264208
v -0.689822 1.547472 -0.264208
v -0.689822 1.547472 0.307007
v -0.029702 1.724983 0.021399
v 0.029092 1.724983 0.021399
v -0.000305 1.724983 -0.007998
v -0.802347 1.560483 0.021399
v -0.567434 1.560484 0.588528
v -0.000305 1.560484 0.823441
v 0.566824 1.560484 0.588528
v 0.801737 1.560483 0.021399
v -0.000305 1.560483 -0.780642
v -0.567434 1.560483 -0.545730
v 0.464023 1.287219 1.142385
v 1.120681 1.287219 0.485727
v -1.121291 1.287219 -0.442928
v -1.304228 1.308373 0.021399
v -0.922318 1.308373 0.943413
v 0.038408 1.299992 1.318681
v -0.039018 1.299992 1.318681
v -0.000305 1.308373 1.325323
v 1.296976 1.299991 0.060112
v 1.303618 1.308373 0.021399
v -0.552943 1.102485 1.355585
v 1.333880 1.102485 -0.531239
v 0.552332 1.102485 -1.312787
v -0.552943 1.102485 -1.312786
v -1.334490 1.102485 0.574037
v -1.579112 1.096228 -0.025715
v -1.602426 1.088656 0.021399
v -1.133176 1.088656 1.154271
v -0.047419 1.096228 1.600206
v -0.000305 1.088656 1.623521
v 1.601816 1.088656 0.021399
v -1.133176 1.088655 -1.111471
v 0.011064 1.723789 0.048846
v 0.285302 1.546278 0.710916
v 0.285302 1.546278 -0.668118
v -0.285912 1.546278 -0.668118
v -0.027752 1.723789 0.010030
v -0.021092 1.723789 0.000612
v -0.547707 1.554134 -0.559679
v -0.581383 1.554134 -0.526003
v -0.798261 1.554134 0.045212
v -0.798261 1.554134 -0.002413
v 0.020482 1.723789 0.000612
v 0.027142 1.723789 0.010030
v 0.580773 1.554134 -0.526003
v 0.566824 1.559290 -0.545730
v 0.011064 1.723789 -0.006048
v 0.547097 1.554134 -0.559679
v -0.024118 1.554134 -0.776557
v -0.011674 1.723789 -0.006048
v 0.023507 1.554134 -0.776557
v 0.020482 1.723789 0.042186
v 0.547097 1.554134 0.602477
v 0.580773 1.554134 0.568801
v 0.797651 1.554134 -0.002413
v 0.797651 1.554134 0.045211
v 0.027142 1.723789 0.032768
v -0.021092 1.723789 0.042186
v -0.027752 1.723789 0.032768
v -0.581383 1.554134 0.568801
v -0.011674 1.723789 0.048846
v -0.547707 1.554134 0.602477
v 0.023508 1.554134 0.819355
v -0.000305 1.723789 0.050796
v -0.024117 1.554134 0.819355
v -0.890247 1.298797 -0.923291
v -0.922318 1.307180 -0.900614
v -0.944996 1.298797 -0.868543
v -1.297586 1.298798 0.060113
v -1.297586 1.298798 -0.017314
v 0.944385 1.298797 -0.868543
v 0.921708 1.307180 -0.900614
v 0.889637 1.298797 -0.923292
v -0.000305 1.307180 -1.282524
v -0.039018 1.298797 -1.275882
v 0.038408 1.298797 -1.275882
v 0.889637 1.298798 0.966090
v 0.921708 1.307180 0.943412
v 0.944386 1.298798 0.911341
v 1.296976 1.298798 -0.017314
v -0.944995 1.298798 0.911341
v -0.890247 1.298798 0.966090
v -1.121291 1.286026 0.485727
v -0.464632 1.286026 1.142385
v 1.120681 1.286026 -0.442929
v 0.464022 1.286026 -1.099587
v -0.464633 1.286025 -1.099587
v -1.083375 1.095034 -1.128301
v -1.150005 1.095034 -1.061671
v -1.579112 1.095034 0.068514
v 1.149395 1.095034 -1.061671
v 1.132565 1.087462 -1.111472
v 1.082765 1.095034 -1.128301
v -0.000305 1.087462 -1.580722
v -0.047420 1.095034 -1.557408
v 0.046809 1.095034 -1.557408
v 1.082765 1.095034 1.171099
v 1.132566 1.087462 1.154270
v 1.149395 1.095034 1.104469
v 1.578502 1.095035 -0.025716
v 1.578502 1.095035 0.068513
v -1.150005 1.095034 1.104470
v -1.083375 1.095034 1.171100
v 0.046810 1.095034 1.600206
v -1.334491 1.101246 -0.531238
v 0.552333 1.101246 1.355585
v 1.333881 1.101246 0.574037
v -0.285912 1.544010 0.710916
v 0.689212 1.544010 0.307006
v 0.689212 1.544010 -0.264208
v -0.689822 1.544010 -0.264208
v -0.689822 1.544010 0.307007
v -0.029702 1.721521 0.021399
v 0.029092 1.721521 0.021399
v -0.000305 1.721521 -0.007998
v -0.802347 1.557022 0.021399
v -0.567434 1.557022 0.588528
v -0.000305 1.557022 0.823441
v 0.566824 1.557022 0.588528
v 0.801737 1.557022 0.021399
v -0.000305 1.557021 -0.780642
v -0.567434 1.557021 -0.545730
v 0.464023 1.283758 1.142385
v 1.120681 1.283758 0.485727
v -1.121291 1.283757 -0.442928
v -1.304228 1.304911 0.021399
v -0.922318 1.304911 0.943413
v 0.038408 1.296530 1.318681
v -0.039018 1.296530 1.318681
v -0.000305 1.304911 1.325323
v 1.296976 1.296530 0.060112
v 1.303618 1.304911 0.021399
v -0.552943 1.099023 1.355585
v 1.333880 1.099023 -0.531239
v 0.552332 1.099023 -1.312787
v -0.552943 1.099023 -1.312786
v -1.334490 1.099023 0.574037
v -1.579112 1.092766 -0.025715
v -1.602426 1.085193 0.021399
v -1.133176 1.085194 1.154271
v -0.047419 1.092766 1.600206
v -0.000305 1.085194 1.623521
v 1.601816 1.085193 0.021399
v -1.133176 1.085193 -1.111471
v 0.011064 1.720328 0.048846
v 0.285302 1.542816 0.710916
v 0.285302 1.542816 -0.668118
v -0.285912 1.542816 -0.668118
v -0.027752 1.720328 0.010030
v -0.021092 1.720328 0.000612
v -0.547707 1.550672 -0.559679
v -0.581383 1.550672 -0.526003
v -0.798261 1.550672 0.045212
v -0.798261 1.550672 -0.002413
v 0.020482 1.720328 0.000612
v 0.027142 1.720328 0.010030
v 0.580773 1.550672 -0.526003
v 0.566824 1.555828 -0.545730
v 0.011064 1.720328 -0.006048
v 0.547097 1.550672 -0.559679
v -0.024118 1.550672 -0.776557
v -0.011674 1.720328 -0.006048
v 0.023507 1.550672 -0.776557
v 0.020482 1.720328 0.042186
v 0.547097 1.550673 0.602477
v 0.580773 1.550673 0.568801
v 0.797651 1.550673 -0.002413
v 0.797651 1.550673 0.045211
v 0.027142 1.720328 0.032768
v -0.021092 1.720328 0.042186
v -0.027752 1.720328 0.032768
v -0.581383 1.550672 0.568801
v -0.011674 1.720328 0.048846
v -0.547707 1.550672 0.602477
v 0.023508 1.550673 0.819355
v -0.000305 1.720328 0.050796
v -0.024117 1.550673 0.819355
v -0.890247 1.295336 -0.923291
v -0.922318 1.303717 -0.900614
v -0.944996 1.295336 -0.868543
v -1.297586 1.295336 0.060113
v -1.297586 1.295336 -0.017314
v 0.944385 1.295336 -0.868543
v 0.921708 1.303717 -0.900614
v 0.889637 1.295336 -0.923292
v -0.000305 1.303717 -1.282524
v -0.039018 1.295336 -1.275882
v 0.038408 1.295336 -1.275882
v 0.889637 1.295336 0.966090
v 0.921708 1.303718 0.943412
v 0.944386 1.295336 0.911341
v 1.296976 1.295336 -0.017314
v -0.944995 1.295336 0.911341
v -0.890247 1.295336 0.966090
v -1.121291 1.282564 0.485727
v -0.464632 1.282564 1.142385
v 1.120681 1.282564 -0.442929
v 0.464022 1.282563 -1.099587
v -0.464633 1.282563 -1.099587
v -1.083375 1.091572 -1.128301
v -1.150005 1.091572 -1.061671
v -1.579112 1.091572 0.068514
v 1.149395 1.091572 -1.061671
v 1.132565 1.084000 -1.111472
v 1.082765 1.091572 -1.128301
v -0.000305 1.083999 -1.580722
v -0.047420 1.091572 -1.557408
v 0.046809 1.091572 -1.557408
v 1.082765 1.091573 1.171099
v 1.132566 1.084000 1.154270
v 1.149395 1.091573 1.104469
v 1.578502 1.091572 -0.025716
v 1.578502 1.091572 0.068513
v -1.150005 1.091573 1.104470
v -1.083375 1.091573 1.171100
v 0.046810 1.091573 1.600206
v -1.334491 1.097783 -0.531238
v 0.552333 1.097784 1.355585
v 1.333881 1.097784 0.574037
v 0.000000 1.702319 0.041364
v 0.000000 0.317602 0.041364
v -0.004194 1.702319 0.040951
v -0.004194 0.317602 0.040951
v -0.008226 1.702319 0.039728
v -0.008226 0.317602 0.039728
v -0.011943 1.702319 0.037741
v -0.011943 0.317602 0.037742
v -0.015200 1.702319 0.035068
v -0.015200 0.317602 0.035068
v -0.017873 1.702319 0.031810
v -0.017873 0.317602 0.031811
v -0.019860 1.702319 0.028094
v -0.019860 0.317602 0.028094
v -0.021083 1.702319 0.024061
v -0.021083 0.317602 0.024062
v -0.021496 1.702319 0.019868
v -0.021496 0.317602 0.019868
v -0.021083 1.702319 0.015674
v -0.021083 0.317602 0.015674
v -0.019860 1.702319 0.011641
v -0.019860 0.317602 0.011642
v -0.017873 1.702319 0.007925
v -0.017873 0.317602 0.007925
v -0.015200 1.702319 0.004667
v -0.015200 0.317602 0.004668
v -0.011943 1.702319 0.001994
v -0.011943 0.317602 0.001994
v -0.008226 1.702319 0.000008
v -0.008226 0.317602 0.000008
v -0.004194 1.702319 -0.001216
v -0.004194 0.317602 -0.001215
v 0.000000 1.702319 -0.001629
v 0.000000 0.317602 -0.001628
v 0.004194 1.702319 -0.001216
v 0.004194 0.317602 -0.001215
v 0.008226 1.702319 0.000008
v 0.008226 0.317602 0.000008
v 0.011943 1.702319 0.001994
v 0.011943 0.317602 0.001994
v 0.015200 1.702319 0.004667
v 0.015200 0.317602 0.004668
v 0.017874 1.702319 0.007925
v 0.017874 0.317602 0.007925
v 0.019860 1.702319 0.011641
v 0.019860 0.317602 0.011642
v 0.021083 1.702319 0.015674
v 0.021083 0.317602 0.015674
v 0.021497 1.702319 0.019868
v 0.021497 0.317602 0.019868
v 0.021083 1.702319 0.024061
v 0.021083 0.317602 0.024062
v 0.019860 1.702319 0.028094
v 0.019860 0.317602 0.028094
v 0.017874 1.702319 0.031810
v 0.017874 0.317602 0.031811
v 0.015200 1.702319 0.035068
v 0.015200 0.317602 0.035068
v 0.011943 1.702319 0.037741
v 0.011943 0.317602 0.037742
v 0.008226 1.702319 0.039728
v 0.008226 0.317602 0.039728
v 0.004194 1.702319 0.040951
v 0.004194 0.317602 0.040951
v 0.000000 0.126480 0.011813
v -0.004194 0.126551 0.011406
v -0.008226 0.126763 0.010201
v -0.011943 0.127106 0.008245
v -0.015200 0.127568 0.005612
v -0.017874 0.128131 0.002403
v -0.019860 0.128773 -0.001257
v -0.021083 0.129470 -0.005229
v -0.021496 0.130195 -0.009360
v -0.021083 0.130919 -0.013491
v -0.019860 0.131616 -0.017463
v -0.017874 0.132259 -0.021123
v -0.015200 0.132821 -0.024332
v -0.011943 0.133283 -0.026965
v -0.008226 0.133627 -0.028921
v -0.004194 0.133838 -0.030126
v 0.000000 0.133909 -0.030533
v 0.004194 0.133838 -0.030126
v 0.008226 0.133627 -0.028921
v 0.011943 0.133283 -0.026965
v 0.015200 0.132821 -0.024332
v 0.017874 0.132259 -0.021123
v 0.019860 0.131616 -0.017463
v 0.021083 0.130919 -0.013491
v 0.021496 0.130195 -0.009360
v 0.021083 0.129470 -0.005229
v 0.019860 0.128773 -0.001257
v 0.017874 0.128131 0.002403
v 0.015200 0.127568 0.005612
v 0.011943 0.127106 0.008245
v 0.008226 0.126763 0.010201
v 0.004194 0.126551 0.011406
v 0.000000 0.026455 -0.059477
v -0.004194 0.026850 -0.059598
v -0.008226 0.028020 -0.059954
v -0.011943 0.029920 -0.060533
v -0.015200 0.032478 -0.061313
v -0.017874 0.035594 -0.062263
v -0.019860 0.039149 -0.063346
v -0.021083 0.043006 -0.064522
v -0.021496 0.047018 -0.065744
v -0.021083 0.051029 -0.066967
v -0.019860 0.054886 -0.068143
v -0.017874 0.058441 -0.069226
v -0.015200 0.061557 -0.070176
v -0.011943 0.064115 -0.070955
v -0.008226 0.066015 -0.071534
v -0.004194 0.067185 -0.071891
v 0.000000 0.067580 -0.072011
v 0.004194 0.067185 -0.071891
v 0.008226 0.066015 -0.071534
v 0.011943 0.064115 -0.070955
v 0.015200 0.061557 -0.070176
v 0.017874 0.058441 -0.069226
v 0.019860 0.054886 -0.068143
v 0.021083 0.051029 -0.066967
v 0.021496 0.047018 -0.065744
v 0.021083 0.043006 -0.064522
v 0.019860 0.039149 -0.063346
v 0.017874 0.035594 -0.062263
v 0.015200 0.032478 -0.061313
v 0.011943 0.029920 -0.060533
v 0.008226 0.028020 -0.059954
v 0.004194 0.026850 -0.059598
v 0.000000 0.000509 -0.151959
v -0.004194 0.000917 -0.151896
v -0.008226 0.002126 -0.151707
v -0.011943 0.004089 -0.151402
v -0.015200 0.006730 -0.150990
v -0.017874 0.009949 -0.150489
v -0.019860 0.013621 -0.149916
v -0.021083 0.017606 -0.149296
v -0.021496 0.021749 -0.148650
v -0.021083 0.025893 -0.148005
v -0.019860 0.029878 -0.147384
v -0.017874 0.033550 -0.146812
v -0.015200 0.036768 -0.146310
v -0.011943 0.039410 -0.145899
v -0.008226 0.041373 -0.145593
v -0.004194 0.042581 -0.145405
v 0.000000 0.042989 -0.145341
v 0.004194 0.042581 -0.145405
v 0.008226 0.041373 -0.145593
v 0.011943 0.039410 -0.145899
v 0.015200 0.036768 -0.146310
v 0.017874 0.033550 -0.146812
v 0.019860 0.029878 -0.147384
v 0.021083 0.025893 -0.148005
v 0.021496 0.021749 -0.148650
v 0.021083 0.017606 -0.149296
v 0.019860 0.013621 -0.149916
v 0.017874 0.009949 -0.150489
v 0.015200 0.006730 -0.150990
v 0.011943 0.004089 -0.151402
v 0.008226 0.002126 -0.151707
v 0.004194 0.000917 -0.151896
v 0.000000 0.030568 -0.248878
v -0.004194 0.030842 -0.248570
v -0.008226 0.031655 -0.247655
v -0.011943 0.032974 -0.246170
v -0.015200 0.034750 -0.244172
v -0.017874 0.036914 -0.241737
v -0.019860 0.039383 -0.238959
v -0.021083 0.042061 -0.235945
v -0.021496 0.044847 -0.232810
v -0.021083 0.047633 -0.229675
v -0.019860 0.050312 -0.226661
v -0.017874 0.052781 -0.223883
v -0.015200 0.054944 -0.221448
v -0.011943 0.056720 -0.219450
v -0.008226 0.058040 -0.217965
v -0.004194 0.058852 -0.217050
v 0.000000 0.059127 -0.216742
v 0.004194 0.058852 -0.217050
v 0.008226 0.058040 -0.217965
v 0.011943 0.056720 -0.219450
v 0.015200 0.054944 -0.221448
v 0.017874 0.052781 -0.223883
v 0.019860 0.050312 -0.226661
v 0.021083 0.047633 -0.229675
v 0.021496 0.044847 -0.232810
v 0.021083 0.042061 -0.235945
v 0.019860 0.039383 -0.238959
v 0.017874 0.036914 -0.241737
v 0.015200 0.034750 -0.244172
v 0.011943 0.032974 -0.246170
v 0.008226 0.031655 -0.247655
v 0.004194 0.030842 -0.248570
v 0.000000 0.115118 -0.324017
v -0.004194 0.115393 -0.323708
v -0.008226 0.116205 -0.322794
v -0.011943 0.117525 -0.321309
v -0.015200 0.119301 -0.319310
v -0.017874 0.121464 -0.316875
v -0.019860 0.123933 -0.314097
v -0.021083 0.126612 -0.311083
v -0.021496 0.129398 -0.307948
v -0.021083 0.132184 -0.304814
v -0.019860 0.134862 -0.301799
v -0.017874 0.137331 -0.299021
v -0.015200 0.139495 -0.296586
v -0.011943 0.141271 -0.294588
v -0.008226 0.142590 -0.293103
v -0.004194 0.143403 -0.292189
v 0.000000 0.143677 -0.291880
v 0.004194 0.143403 -0.292189
v 0.008226 0.142590 -0.293103
v 0.011943 0.141271 -0.294588
v 0.015200 0.139495 -0.296586
v 0.017874 0.137331 -0.299021
v 0.019860 0.134862 -0.301799
v 0.021083 0.132184 -0.304814
v 0.021496 0.129398 -0.307948
v 0.021083 0.126612 -0.311083
v 0.019860 0.123933 -0.314097
v 0.017874 0.121464 -0.316875
v 0.015200 0.119301 -0.319310
v 0.011943 0.117525 -0.321309
v 0.008226 0.116205 -0.322794
v 0.004194 0.115393 -0.323708
vt 0.000000 0.000000
vt 0.000000 0.000000
vt 0.000000 0.000000
vt 0.000000 0.000000
vt 0.000000 0.000000
vt 0.000000 0.000000
vt 0.000000 0.000000
vt 0.000000 0.000000
vt 0.000000 0.000000
vt 0.000000 0.000000
vt 0.000000 0.000000
vt 0.000000 0.000000
vt 0.000000 0.000000
vt 0.000000 0.000000
vt 0.000000 0.000000
vt 0.000000 0.000000
vt 0.000000 0.000000
vt 0.000000 0.000000
vt 0.000000 0.000000
vt 0.000000 0.000000
vt 0.000000 0.000000
vt 0.000000 0.000000
vt 0.000000 0.000000
vt 0.000000 0.000000
vt 0.000000 0.000000
vt 0.000000 0.000000
vt 0.000000 0.000000
vt 0.000000 0.000000
vt 0.000000 0.000000
vt 0.000000 0.000000
vt 0.000000 0.000000
vt 0.000000 0.000000
vt 0.000000 0.000000
vt 0.000000 0.000000
vt 0.000000 0.000000
vt 0.000000 0.000000
vt 0.000000 0.000000
vt 0.000000 0.000000
vt 0.000000 0.000000
vt 0.000000 0.000000
vt 0.000000 0.000000
vt 0.000000 0.000000
vt 0.000000 0.000000
vt 0.000000 0.000000
vt 0.000000 0.000000
vt 0.000000 0.000000
vt 0.000000 0.000000
vt 0.000000 0.000000
vt 0.000000 0.000000
vt 0.000000 0.000000
vt 0.000000 0.000000
vt 0.000000 0.000000
vt 0.000000 0.000000
vt 0.000000 0.000000
vt 0.000000 0.000000
vt 0.000000 0.000000
vt 0.000000 0.000000
vt 0.000000 0.000000
vt 0.000000 0.000000
vt 0.000000 0.000000
vt 0.000000 0.000000
vt 0.000000 0.000000
vt 0.000000 0.000000
vt 0.000000 0.000000
vt 0.000000 0.000000
vt 0.000000 0.000000
vt 0.000000 0.000000
vt 0.000000 0.000000
vt 0.000000 0.000000
vt 0.000000 0.000000
vt 0.000000 0.000000
vt 0.000000 0.000000
vt 0.000000 0.000000
vt 0.000000 0.000000
vt 0.000000 0.000000
vt 0.000000 0.000000
vt 0.000000 0.000000
vt 0.000000 0.000000
vt 0.000000 0.000000
vt 0.000000 0.000000
vt 0.000000 0.000000
vt 0.000000 0.000000
vt 0.000000 0.000000
vt 0.000000 0.000000
vt 0.000000 0.000000
vt 0.000000 0.000000
vt 0.000000 0.000000
vt 0.000000 0.000000
vt 0.000000 0.000000
vt 0.000000 0.000000
vt 0.000000 0.000000
vt 0.000000 0.000000
vt 0.000000 0.000000
vt 0.000000 0.000000
vt 0.000000 0.000000
vt 0.000000 0.000000
vt 0.000000 0.000000
vt 0.000000 0.000000
vt 0.000000 0.000000
vt 0.000000 0.000000
vt 0.000000 0.000000
vt 0.000000 0.000000
vt 0.000000 0.000000
vt 0.000000 0.000000
vt 0.000000 0.000000
vt 0.000000 0.000000
vt 0.000000 0.000000
vt 0.000000 0.000000
vt 0.000000 0.000000
vt 0.000000 0.000000
vt 0.000000 0.000000
vt 0.000000 0.000000
vt 0.000000 0.000000
vt 0.000000 0.000000
vt 0.000000 0.000000
vt 0.000000 0.000000
vt 0.000000 0.000000
vt 0.000000 0.000000
vt 0.000000 0.000000
vt 0.000000 0.000000
vt 0.000000 0.000000
vt 0.000000 0.000000
vt 0.000000 0.000000
vt 0.000000 0.000000
vt 0.000000 0.000000
vt 0.000000 0.000000
vt 0.000000 0.000000
vt 0.000000 0.000000
vt 0.000000 0.000000
vt 0.000000 0.000000
vt 0.000000 0.000000
vt 0.000000 0.000000
vt 0.000000 0.000000
vt 0.000000 0.000000
vt 0.000000 0.000000
vt 0.000000 0.000000
vt 0.000000 0.000000
vt 0.000000 0.000000
vt 0.000000 0.000000
vt 0.000000 0.000000
vt 0.000000 0.000000
vt 0.000000 0.000000
vt 0.000000 0.000000
vt 0.000000 0.000000
vt 0.000000 0.000000
vt 0.000000 0.000000
vt 0.000000 0.000000
vt 0.000000 0.000000
vt 0.000000 0.000000
vt 0.000000 0.000000
vt 0.000000 0.000000
vt 0.000000 0.000000
vt 0.000000 0.000000
vt 0.000000 0.000000
vt 0.000000 0.000000
vt 0.000000 0.000000
vt 0.000000 0.000000
vt 0.000000 0.000000
vt 0.000000 0.000000
vt 0.000000 0.000000
vt 0.000000 0.000000
vt 0.000000 0.000000
vt 0.000000 0.000000
vt 0.000000 0.000000
vt 0.000000 0.000000
vt 0.000000 0.000000
vt 0.000000 0.000000
vt 0.000000 0.000000
vt 0.000000 0.000000
vt 0.000000 0.000000
vt 0.000000 0.000000
vt 0.000000 0.000000
vt 0.000000 0.000000
vt 0.000000 0.000000
vt 0.000000 0.000000
vt 0.000000 0.000000
vt 0.000000 0.000000
vt 0.000000 0.000000
vt 0.000000 0.000000
vt 0.000000 0.000000
vt 0.000000 0.000000
vt 0.000000 0.000000
vt 0.000000 0.000000
vt 0.000000 0.000000
vt 0.000000 0.000000
vt 0.000000 0.000000
vt 0.000000 0.000000
vt 0.000000 0.000000
vt 0.000000 0.000000
vt 0.000000 0.000000
vt 0.000000 0.000000
vt 0.000000 0.000000
vt 0.000000 0.000000
vt 0.000000 0.000000
vt 0.000000 0.000000
vt 0.000000 0.000000
vt 0.000000 0.000000
vt 0.000000 0.000000
vt 0.000000 0.000000
vt 0.000000 0.000000
vt 0.000000 0.000000
vt 0.000000 0.000000
vt 0.000000 0.000000
vt 0.000000 0.000000
vt 0.000000 0.000000
vt 0.000000 0.000000
vt 0.000000 0.000000
vt 0.000000 0.000000
vt 0.000000 0.000000
vt 0.000000 0.000000
vt 0.000000 0.000000
vt 0.000000 0.000000
vt 0.000000 0.000000
vt 0.000000 0.000000
vt 0.000000 0.000000
vt 0.000000 0.000000
vt 0.000000 0.000000
vt 0.000000 0.000000
vt 0.000000 0.000000
vt 0.000000 0.000000
vt 0.000000 0.000000
vt 0.000000 0.000000
vt 0.000000 0.000000
vt 0.000000 0.000000
vt 1.000000 0.500000
vt 1.000000 1.000000
vt 0.968750 1.000000
vt 0.968750 0.500000
vt 0.937500 1.000000
vt 0.937500 0.500000
vt 0.906250 1.000000
vt 0.906250 0.500000
vt 0.875000 1.000000
vt 0.875000 0.500000
vt 0.843750 1.000000
vt 0.843750 0.500000
vt 0.812500 1.000000
vt 0.812500 0.500000
vt 0.781250 1.000000
vt 0.781250 0.500000
vt 0.750000 1.000000
vt 0.750000 0.500000
vt 0.718750 1.000000
vt 0.718750 0.500000
vt 0.687500 1.000000
vt 0.687500 0.500000
vt 0.656250 1.000000
vt 0.656250 0.500000
vt 0.625000 1.000000
vt 0.625000 0.500000
vt 0.593750 1.000000
vt 0.593750 0.500000
vt 0.562500 1.000000
vt 0.562500 0.500000
vt 0.531250 1.000000
vt 0.531250 0.500000
vt 0.500000 1.000000
vt 0.500000 0.500000
vt 0.468750 1.000000
vt 0.468750 0.500000
vt 0.437500 1.000000
vt 0.437500 0.500000
vt 0.406250 1.000000
vt 0.406250 0.500000
vt 0.375000 1.000000
vt 0.375000 0.500000
vt 0.343750 1.000000
vt 0.343750 0.500000
vt 0.312500 1.000000
vt 0.312500 0.500000
vt 0.281250 1.000000
vt 0.281250 0.500000
vt 0.250000 1.000000
vt 0.250000 0.500000
vt 0.218750 1.000000
vt 0.218750 0.500000
vt 0.187500 1.000000
vt 0.187500 0.500000
vt 0.156250 1.000000
vt 0.156250 0.500000
vt 0.125000 1.000000
vt 0.125000 0.500000
vt 0.093750 1.000000
vt 0.093750 0.500000
vt 0.062500 1.000000
vt 0.062500 0.500000
vt 0.843750 1.000000
vt 0.812500 1.000000
vt 0.031250 1.000000
vt 0.031250 0.500000
vt 0.000000 1.000000
vt 0.000000 0.500000
vt 0.750000 0.490000
vt 0.796822 0.485388
vt 0.841844 0.471731
vt 0.883337 0.449553
vt 0.919706 0.419706
vt 0.949553 0.383337
vt 0.971731 0.341844
vt 0.985388 0.296822
vt 0.990000 0.250000
vt 0.985388 0.203178
vt 0.971731 0.158156
vt 0.949553 0.116663
vt 0.919706 0.080294
vt 0.883337 0.050447
vt 0.841844 0.028269
vt 0.796822 0.014612
vt 0.750000 0.010000
vt 0.703178 0.014612
vt 0.658156 0.028269
vt 0.616663 0.050447
vt 0.580294 0.080294
vt 0.550447 0.116663
vt 0.528269 0.158156
vt 0.514612 0.203178
vt 0.510000 0.250000
vt 0.514612 0.296822
vt 0.528269 0.341844
vt 0.550447 0.383337
vt 0.580294 0.419706
vt 0.616663 0.449553
vt 0.658156 0.471731
vt 0.703178 0.485388
vt 0.531250 1.000000
vt 0.562500 1.000000
vt 0.562500 1.000000
vt 0.531250 1.000000
vt 0.281250 1.000000
vt 0.250000 1.000000
vt 0.968750 1.000000
vt 0.937500 1.000000
vt 0.687500 1.000000
vt 0.656250 1.000000
vt 0.406250 1.000000
vt 0.375000 1.000000
vt 0.125000 1.000000
vt 0.093750 1.000000
vt 0.781250 1.000000
vt 0.500000 1.000000
vt 0.218750 1.000000
vt 0.906250 1.000000
vt 0.625000 1.000000
vt 0.343750 1.000000
vt 0.062500 1.000000
vt 0.750000 1.000000
vt 0.468750 1.000000
vt 0.187500 1.000000
vt 0.875000 1.000000
vt 0.593750 1.000000
vt 0.312500 1.000000
vt 0.031250 1.000000
vt 0.718750 1.000000
vt 0.437500 1.000000
vt 0.156250 1.000000
vt 1.000000 1.000000
vt 0.000000 1.000000
vt 0.437500 1.000000
vt 0.468750 1.000000
vt 0.468750 1.000000
vt 0.437500 1.000000
vt 0.968750 1.000000
vt 0.937500 1.000000
vt 0.125000 1.000000
vt 0.093750 1.000000
vt 0.500000 1.000000
vt 0.906250 1.000000
vt 0.062500 1.000000
vt 0.875000 1.000000
vt 0.031250 1.000000
vt 0.843750 1.000000
vt 0.000000 1.000000
vt 0.406250 1.000000
vt 0.812500 1.000000
vt 0.375000 1.000000
vt 0.781250 1.000000
vt 0.343750 1.000000
vt 0.750000 1.000000
vt 0.312500 1.000000
vt 0.718750 1.000000
vt 0.281250 1.000000
vt 0.687500 1.000000
vt 0.250000 1.000000
vt 0.656250 1.000000
vt 0.218750 1.000000
vt 0.625000 1.000000
vt 0.187500 1.000000
vt 0.593750 1.000000
vt 0.156250 1.000000
vt 1.000000 1.000000
vt 0.343750 1.000000
vt 0.375000 1.000000
vt 0.375000 1.000000
vt 0.343750 1.000000
vt 0.875000 1.000000
vt 0.843750 1.000000
vt 0.031250 1.000000
vt 0.000000 1.000000
vt 0.406250 1.000000
vt 0.812500 1.000000
vt 0.781250 1.000000
vt 0.750000 1.000000
vt 0.312500 1.000000
vt 0.718750 1.000000
vt 0.281250 1.000000
vt 0.687500 1.000000
vt 0.250000 1.000000
vt 0.656250 1.000000
vt 0.218750 1.000000
vt 0.625000 1.000000
vt 0.187500 1.000000
vt 0.593750 1.000000
vt 0.156250 1.000000
vt 0.562500 1.000000
vt 1.000000 1.000000
vt 0.968750 1.000000
vt 0.125000 1.000000
vt 0.531250 1.000000
vt 0.937500 1.000000
vt 0.093750 1.000000
vt 0.500000 1.000000
vt 0.906250 1.000000
vt 0.062500 1.000000
vt 0.250000 1.000000
vt 0.281250 1.000000
vt 0.281250 1.000000
vt 0.250000 1.000000
vt 0.781250 1.000000
vt 0.750000 1.000000
vt 0.312500 1.000000
vt 0.718750 1.000000
vt 0.687500 1.000000
vt 0.656250 1.000000
vt 0.218750 1.000000
vt 0.625000 1.000000
vt 0.187500 1.000000
vt 0.593750 1.000000
vt 0.156250 1.000000
vt 0.562500 1.000000
vt 1.000000 1.000000
vt 0.968750 1.000000
vt 0.125000 1.000000
vt 0.531250 1.000000
vt 0.937500 1.000000
vt 0.093750 1.000000
vt 0.500000 1.000000
vt 0.906250 1.000000
vt 0.062500 1.000000
vt 0.468750 1.000000
vt 0.875000 1.000000
vt 0.031250 1.000000
vt 0.437500 1.000000
vt 0.843750 1.000000
vt 0.000000 1.000000
vt 0.406250 1.000000
vt 0.812500 1.000000
vt 0.296822 0.485388
vt 0.250000 0.490000
vt 0.203178 0.485388
vt 0.158156 0.471731
vt 0.116663 0.449553
vt 0.080294 0.419706
vt 0.050447 0.383337
vt 0.028269 0.341844
vt 0.014612 0.296822
vt 0.010000 0.250000
vt 0.014612 0.203178
vt 0.028269 0.158156
vt 0.050447 0.116663
vt 0.080294 0.080294
vt 0.116663 0.050447
vt 0.158156 0.028269
vt 0.203178 0.014612
vt 0.250000 0.010000
vt 0.296822 0.014612
vt 0.341844 0.028269
vt 0.383337 0.050447
vt 0.419706 0.080294
vt 0.449553 0.116663
vt 0.471731 0.158156
vt 0.485388 0.203178
vt 0.490000 0.250000
vt 0.485388 0.296822
vt 0.471731 0.341844
vt 0.449553 0.383337
vt 0.419706 0.419706
vt 0.383337 0.449553
vt 0.341844 0.471731
vt 0.687500 1.000000
vt 0.656250 1.000000
vt 0.218750 1.000000
vt 0.625000 1.000000
vt 0.187500 1.000000
vt 0.593750 1.000000
vt 0.156250 1.000000
vt 0.562500 1.000000
vt 1.000000 1.000000
vt 0.968750 1.000000
vt 0.125000 1.000000
vt 0.531250 1.000000
vt 0.937500 1.000000
vt 0.093750 1.000000
vt 0.500000 1.000000
vt 0.906250 1.000000
vt 0.062500 1.000000
vt 0.468750 1.000000
vt 0.875000 1.000000
vt 0.031250 1.000000
vt 0.437500 1.000000
vt 0.843750 1.000000
vt 0.000000 1.000000
vt 0.406250 1.000000
vt 0.812500 1.000000
vt 0.375000 1.000000
vt 0.781250 1.000000
vt 0.343750 1.000000
vt 0.750000 1.000000
vt 0.312500 1.000000
vt 0.718750 1.000000
vn 0.1355 0.9884 -0.0690
vn 0.3392 0.9302 -0.1405
vn 0.3764 0.9211 -0.0992
vn -0.1403 0.9878 0.0680
vn -0.3392 0.9302 0.1405
vn -0.3872 0.9179 0.0871
vn 0.1403 0.9878 0.0680
vn 0.3384 0.9305 0.1405
vn 0.3349 0.9171 0.2163
vn -0.0579 0.9882 0.1421
vn -0.1408 0.9302 0.3389
vn -0.2087 0.9187 0.3353
vn -0.1404 0.9881 -0.0637
vn -0.3387 0.9304 -0.1403
vn -0.3350 0.9162 -0.2199
vn -0.3351 0.9160 0.2204
vn 0.3845 0.9187 0.0905
vn 0.3351 0.9160 -0.2204
vn -0.3845 0.9187 -0.0905
vn -0.0871 0.9179 0.3872
vn -0.0659 0.9882 -0.1384
vn -0.0891 0.9184 -0.3854
vn -0.2380 0.9417 -0.2380
vn -0.0816 0.9935 -0.0793
vn -0.1156 0.9933 0.0023
vn -0.3363 0.9417 0.0000
vn -0.2177 0.9166 -0.3353
vn 0.0000 0.9936 -0.1133
vn 0.0000 0.9414 -0.3372
vn 0.0713 0.9885 -0.1335
vn 0.2177 0.9166 -0.3353
vn 0.0580 0.9881 0.1423
vn 0.0894 0.9186 0.3850
vn 0.2380 0.9417 0.2380
vn 0.0815 0.9931 0.0838
vn 0.1156 0.9933 0.0023
vn 0.3363 0.9417 -0.0041
vn -0.2374 0.9420 0.2374
vn -0.0815 0.9931 0.0838
vn 0.2093 0.9188 0.3346
vn -0.0000 0.9931 0.1176
vn -0.0000 0.9420 0.3356
vn 0.5317 0.8252 0.1907
vn 0.5144 0.8305 0.2137
vn -0.5094 0.8242 -0.2475
vn -0.5209 0.8536 0.0028
vn 0.2414 0.8256 -0.5100
vn 0.0000 0.8527 -0.5224
vn 0.1407 0.9303 0.3388
vn 0.2136 0.8307 0.5141
vn 0.1904 0.8252 0.5317
vn 0.5103 0.8245 0.2445
vn 0.5216 0.8532 -0.0065
vn -0.2419 0.8258 0.5094
vn 0.0029 0.8530 0.5219
vn 0.5091 0.8236 -0.2501
vn 0.5138 0.8311 -0.2128
vn -0.1877 0.8253 -0.5326
vn -0.3689 0.8531 -0.3689
vn 0.5287 0.8265 -0.1932
vn 0.3694 0.8527 0.3694
vn -0.5368 0.8236 0.1831
vn -0.3685 0.8535 0.3685
vn -0.5091 0.8236 0.2501
vn -0.5138 0.8311 0.2128
vn -0.5330 0.8248 -0.1884
vn -0.5141 0.8308 -0.2132
vn -0.1831 0.8236 0.5368
vn -0.2135 0.8312 0.5134
vn -0.2414 0.8256 -0.5100
vn 0.2447 0.8246 0.5101
vn -0.5743 0.7832 -0.2383
vn -0.5695 0.7878 -0.2344
vn -0.2127 0.8313 -0.5135
vn -0.2372 0.7847 -0.5727
vn -0.2371 0.7882 -0.5679
vn -0.2321 0.7865 0.5723
vn -0.2381 0.7846 0.5725
vn -0.5727 0.7847 0.2372
vn -0.5723 0.7865 0.2321
vn 0.2353 0.7861 0.5716
vn 0.2388 0.7823 0.5753
vn -0.2283 0.7889 0.5706
vn 0.5654 0.7882 0.2430
vn 0.5753 0.7823 0.2388
vn 0.2430 0.7882 0.5654
vn 0.5882 0.8087 -0.0052
vn 0.5688 0.7865 -0.2405
vn 0.5727 0.7847 -0.2372
vn 0.5716 0.7861 0.2353
vn -0.4155 0.8091 0.4155
vn 0.2127 0.8313 -0.5135
vn 0.1929 0.8266 -0.5287
vn 0.2427 0.7889 -0.5645
vn 0.2372 0.7847 -0.5727
vn -0.4148 0.8098 -0.4148
vn 0.5645 0.7889 -0.2427
vn 0.0068 0.8086 0.5883
vn -0.5687 0.7875 -0.2374
vn -0.2276 0.7889 -0.5708
vn -0.5871 0.8095 0.0069
vn -0.5688 0.7865 0.2405
vn 0.2276 0.7889 -0.5708
vn -0.1407 0.9300 -0.3397
vn 0.1407 0.9300 -0.3397
vn 0.0981 0.9211 -0.3768
vn 0.2389 0.9412 -0.2389
vn 0.0822 0.9934 -0.0799
vn 0.3691 0.8530 -0.3691
vn 0.4157 0.8090 -0.4157
vn 0.0000 0.8090 -0.5879
vn 0.4157 0.8090 0.4157
vn -0.1355 -0.9884 0.0690
vn -0.3764 -0.9211 0.0992
vn -0.3392 -0.9302 0.1405
vn 0.1403 -0.9878 -0.0680
vn 0.3872 -0.9179 -0.0871
vn 0.3392 -0.9302 -0.1405
vn -0.1403 -0.9878 -0.0680
vn -0.3349 -0.9171 -0.2163
vn -0.3384 -0.9305 -0.1405
vn 0.0579 -0.9882 -0.1421
vn 0.2087 -0.9187 -0.3353
vn 0.1408 -0.9302 -0.3389
vn 0.1404 -0.9881 0.0637
vn 0.3350 -0.9162 0.2199
vn 0.3387 -0.9304 0.1403
vn 0.3351 -0.9160 -0.2204
vn -0.3845 -0.9187 -0.0905
vn -0.3351 -0.9160 0.2204
vn 0.3845 -0.9187 0.0905
vn 0.0871 -0.9179 -0.3872
vn 0.0659 -0.9882 0.1384
vn 0.0816 -0.9935 0.0793
vn 0.2380 -0.9417 0.2380
vn 0.0891 -0.9184 0.3854
vn 0.3363 -0.9417 -0.0000
vn 0.1156 -0.9933 -0.0023
vn 0.2177 -0.9166 0.3353
vn 0.0000 -0.9414 0.3372
vn 0.0000 -0.9936 0.1133
vn -0.2177 -0.9166 0.3353
vn -0.0713 -0.9885 0.1335
vn -0.0580 -0.9881 -0.1423
vn -0.0815 -0.9931 -0.0838
vn -0.2380 -0.9417 -0.2380
vn -0.0894 -0.9186 -0.3850
vn -0.3363 -0.9417 0.0041
vn -0.1156 -0.9933 -0.0023
vn 0.0815 -0.9931 -0.0838
vn 0.2374 -0.9420 -0.2374
vn -0.2093 -0.9188 -0.3346
vn 0.0000 -0.9420 -0.3356
vn 0.0000 -0.9931 -0.1176
vn -0.5144 -0.8305 -0.2137
vn -0.5317 -0.8252 -0.1907
vn 0.5209 -0.8536 -0.0028
vn 0.5094 -0.8242 0.2475
vn -0.0000 -0.8527 0.5224
vn -0.2414 -0.8256 0.5100
vn -0.1904 -0.8252 -0.5317
vn -0.2136 -0.8307 -0.5141
vn -0.1407 -0.9303 -0.3388
vn -0.5216 -0.8532 0.0065
vn -0.5103 -0.8245 -0.2445
vn -0.0029 -0.8530 -0.5219
vn 0.2419 -0.8258 -0.5094
vn -0.5138 -0.8311 0.2128
vn -0.5091 -0.8236 0.2501
vn 0.3689 -0.8531 0.3689
vn 0.1877 -0.8253 0.5326
vn -0.5287 -0.8265 0.1932
vn -0.3694 -0.8527 -0.3694
vn 0.3685 -0.8535 -0.3685
vn 0.5368 -0.8236 -0.1831
vn 0.5138 -0.8311 -0.2128
vn 0.5091 -0.8236 -0.2501
vn 0.5330 -0.8248 0.1884
vn 0.5141 -0.8308 0.2132
vn 0.1831 -0.8236 -0.5368
vn 0.2135 -0.8312 -0.5134
vn 0.2414 -0.8256 0.5100
vn -0.2447 -0.8246 -0.5101
vn 0.5695 -0.7878 0.2344
vn 0.5743 -0.7832 0.2383
vn 0.2371 -0.7882 0.5679
vn 0.2372 -0.7847 0.5727
vn 0.2127 -0.8313 0.5135
vn 0.2381 -0.7846 -0.5725
vn 0.2321 -0.7865 -0.5723
vn 0.5723 -0.7865 -0.2321
vn 0.5727 -0.7847 -0.2372
vn -0.2388 -0.7823 -0.5753
vn -0.2353 -0.7861 -0.5716
vn 0.2283 -0.7889 -0.5706
vn -0.5753 -0.7823 -0.2388
vn -0.5654 -0.7882 -0.2430
vn -0.2430 -0.7882 -0.5654
vn -0.5688 -0.7865 0.2405
vn -0.5882 -0.8087 0.0052
vn -0.5727 -0.7847 0.2372
vn -0.5716 -0.7861 -0.2353
vn 0.4155 -0.8091 -0.4155
vn -0.2127 -0.8313 0.5135
vn -0.2372 -0.7847 0.5727
vn -0.2427 -0.7889 0.5645
vn -0.1929 -0.8266 0.5287
vn 0.4148 -0.8098 0.4148
vn -0.5645 -0.7889 0.2427
vn -0.0068 -0.8086 -0.5883
vn 0.5687 -0.7875 0.2374
vn 0.2276 -0.7889 0.5708
vn 0.5688 -0.7865 -0.2405
vn 0.5871 -0.8095 -0.0069
vn -0.2276 -0.7889 0.5708
vn 0.1407 -0.9300 0.3397
vn -0.1407 -0.9300 0.3397
vn -0.0981 -0.9211 0.3768
vn -0.0822 -0.9934 0.0799
vn -0.2389 -0.9412 0.2389
vn -0.3691 -0.8530 0.3691
vn -0.4157 -0.8090 0.4157
vn -0.0000 -0.8090 0.5879
vn -0.4157 -0.8090 -0.4157
vn -0.9459 0.0000 -0.3245
vn -0.9460 0.0000 -0.3242
vn -0.9239 0.0000 -0.3827
vn -0.8981 0.0000 -0.4397
vn -0.8983 0.0000 -0.4394
vn -0.3245 0.0000 0.9459
vn -0.3242 0.0000 0.9460
vn -0.3826 0.0000 0.9239
vn -0.3827 0.0000 0.9239
vn -0.9239 0.0000 0.3827
vn -0.9460 0.0000 0.3242
vn -0.9459 0.0000 0.3245
vn 0.8983 -0.0000 -0.4394
vn 0.8981 -0.0000 -0.4397
vn 0.9239 0.0000 -0.3827
vn 0.9474 0.0000 -0.3201
vn 0.9459 0.0000 -0.3245
vn 0.9460 0.0000 -0.3241
vn 0.3245 0.0000 -0.9459
vn 0.3241 0.0000 -0.9460
vn 0.3827 0.0000 -0.9239
vn 0.3201 0.0000 -0.9474
vn -0.3245 0.0000 -0.9459
vn -0.3242 0.0000 -0.9460
vn -0.3201 0.0000 -0.9474
vn -0.4393 0.0000 -0.8983
vn -0.4435 0.0000 -0.8963
vn -0.4397 0.0000 -0.8981
vn -0.9474 0.0000 -0.3201
vn -0.3827 0.0000 -0.9239
vn 0.4435 0.0000 -0.8963
vn 0.4393 0.0000 -0.8983
vn 0.4397 0.0000 -0.8981
vn -0.8963 0.0000 0.4435
vn -0.8981 0.0000 0.4397
vn -0.8983 0.0000 0.4394
vn 0.3201 0.0000 0.9474
vn 0.3245 0.0000 0.9459
vn 0.3241 0.0000 0.9460
vn 0.8963 -0.0000 -0.4435
vn 0.9459 0.0000 0.3245
vn 0.9474 0.0000 0.3202
vn 0.9460 0.0000 0.3241
vn 0.8983 0.0000 0.4394
vn 0.8981 0.0000 0.4397
vn 0.8963 0.0000 0.4435
vn 0.4394 0.0000 0.8983
vn 0.4397 0.0000 0.8981
vn 0.3827 0.0000 0.9239
vn -0.8963 0.0000 -0.4435
vn -0.9474 0.0000 0.3201
vn 0.9239 0.0000 0.3827
vn -0.4393 0.0000 0.8983
vn -0.4397 0.0000 0.8981
vn -0.4435 0.0000 0.8963
vn -0.3201 0.0000 0.9474
vn 0.4435 0.0000 0.8963
vn 0.0980 -0.0000 -0.9952
vn 0.2903 -0.0000 -0.9569
vn 0.4714 -0.0000 -0.8819
vn 0.6344 -0.0000 -0.7730
vn 0.7730 -0.0000 -0.6344
vn 0.8819 -0.0000 -0.4714
vn 0.9569 -0.0000 -0.2903
vn 0.9952 -0.0000 -0.0980
vn 0.9952 0.0000 0.0980
vn 0.9569 0.0000 0.2903
vn 0.8819 0.0000 0.4714
vn 0.7730 0.0000 0.6344
vn 0.6344 0.0000 0.7730
vn 0.4714 0.0000 0.8819
vn 0.2903 0.0000 0.9569
vn 0.0980 0.0000 0.9952
vn -0.0980 0.0000 0.9952
vn -0.2903 0.0000 0.9569
vn -0.4714 0.0000 0.8819
vn -0.6344 0.0000 0.7730
vn -0.7730 0.0000 0.6344
vn -0.8819 0.0000 0.4714
vn -0.9569 0.0000 0.2903
vn -0.9952 0.0000 0.0980
vn -0.9952 -0.0000 -0.0980
vn -0.9569 -0.0000 -0.2903
vn -0.8819 -0.0000 -0.4714
vn -0.7730 -0.0000 -0.6344
vn -0.6344 -0.0000 -0.7730
vn -0.4714 -0.0000 -0.8819
vn 0.8807 0.0727 -0.4680
vn -0.2903 -0.0000 -0.9569
vn -0.0980 -0.0000 -0.9952
vn 0.0000 -1.0000 0.0000
vn 0.2472 -0.5156 0.8204
vn 0.2886 -0.1488 0.9458
vn -0.9951 -0.0152 0.0974
vn 0.2887 0.1464 -0.9462
vn 0.8807 -0.0733 0.4679
vn -0.6321 -0.1202 0.7655
vn -0.6321 0.1186 -0.7657
vn 0.9564 0.0449 -0.2884
vn 0.0974 -0.1547 0.9831
vn -0.9951 0.0152 -0.0974
vn 0.4692 0.1351 -0.8727
vn 0.7711 -0.0987 0.6290
vn -0.7711 -0.0987 0.6290
vn -0.4692 0.1351 -0.8727
vn 0.9951 0.0152 -0.0974
vn -0.0974 -0.1547 0.9831
vn -0.9564 0.0449 -0.2884
vn 0.6321 0.1186 -0.7657
vn 0.6321 -0.1202 0.7655
vn -0.8807 -0.0733 0.4679
vn -0.2887 0.1464 -0.9462
vn 0.9951 -0.0152 0.0974
vn -0.2886 -0.1488 0.9458
vn -0.8807 0.0727 -0.4680
vn 0.7711 0.0976 -0.6292
vn 0.4691 -0.1371 0.8724
vn -0.9564 -0.0451 0.2884
vn 0.0974 0.1521 -0.9836
vn -0.0974 0.1521 -0.9836
vn 0.9564 -0.0451 0.2884
vn -0.4691 -0.1371 0.8724
vn -0.7711 0.0976 -0.6292
vn -0.2753 -0.9119 0.3043
vn 0.2490 0.5614 -0.7892
vn -0.5708 0.4735 -0.6708
vn 0.0825 -0.5288 0.8447
vn 0.4125 0.5269 -0.7431
vn -0.4125 0.5269 -0.7431
vn -0.0825 -0.5288 0.8447
vn 0.5708 0.4735 -0.6708
vn -0.2490 0.5614 -0.7892
vn -0.2472 -0.5156 0.8204
vn 0.7181 0.3996 -0.5698
vn -0.0832 0.5782 -0.8116
vn -0.4101 -0.4879 0.7706
vn 0.8455 0.3050 -0.4383
vn -0.5685 -0.4433 0.6930
vn 0.9413 0.1916 -0.2779
vn -0.7164 -0.3792 0.5856
vn 0.9933 0.0652 -0.0956
vn -0.8447 -0.2937 0.4476
vn 0.9933 -0.0647 0.0960
vn -0.9411 -0.1873 0.2816
vn 0.9411 -0.1873 0.2816
vn -0.9933 -0.0647 0.0960
vn 0.8447 -0.2937 0.4476
vn -0.9933 0.0652 -0.0956
vn 0.7164 -0.3792 0.5856
vn -0.9413 0.1916 -0.2779
vn 0.5685 -0.4433 0.6930
vn -0.8455 0.3050 -0.4383
vn 0.4101 -0.4879 0.7706
vn 0.0832 0.5782 -0.8116
vn -0.7181 0.3996 -0.5698
vn -0.7426 -0.6504 -0.1598
vn 0.7578 0.6268 -0.1811
vn -0.0936 0.9585 -0.2691
vn -0.4507 -0.8474 0.2806
vn 0.8721 0.4697 -0.1375
vn -0.6130 -0.7508 0.2460
vn 0.9528 0.2911 -0.0865
vn -0.7555 -0.6234 0.2015
vn 0.9947 0.0986 -0.0298
vn -0.8709 -0.4682 0.1490
vn 0.9947 -0.0986 0.0303
vn -0.9525 -0.2907 0.0910
vn 0.9525 -0.2907 0.0910
vn -0.9947 -0.0986 0.0303
vn 0.8709 -0.4682 0.1490
vn -0.9947 0.0986 -0.0298
vn 0.7555 -0.6234 0.2015
vn -0.9528 0.2911 -0.0865
vn 0.6130 -0.7508 0.2460
vn -0.8721 0.4697 -0.1375
vn 0.4507 -0.8474 0.2806
vn 0.0936 0.9585 -0.2691
vn -0.7578 0.6268 -0.1811
vn 0.2753 -0.9119 0.3043
vn 0.2781 0.9246 -0.2604
vn -0.6164 0.7571 -0.2163
vn 0.0926 -0.9441 0.3163
vn 0.4544 0.8571 -0.2428
vn -0.4544 0.8571 -0.2428
vn -0.0926 -0.9441 0.3163
vn 0.6164 0.7571 -0.2163
vn -0.2781 0.9246 -0.2604
vn -0.9952 -0.0651 -0.0733
vn 0.9943 0.1029 0.0286
vn -0.8627 -0.4903 -0.1244
vn 0.9943 -0.1033 -0.0279
vn -0.9490 -0.3049 -0.0799
vn 0.9490 -0.3049 -0.0799
vn -0.9943 -0.1033 -0.0279
vn 0.8627 -0.4903 -0.1244
vn -0.9943 0.1029 0.0286
vn 0.7426 -0.6504 -0.1598
vn -0.9495 0.3016 0.0862
vn 0.5976 -0.7799 -0.1861
vn -0.8645 0.4824 0.1411
vn 0.4362 -0.8764 -0.2041
vn 0.0905 0.9513 0.2947
vn -0.7464 0.6377 0.1901
vn 0.2650 -0.9400 -0.2150
vn 0.2694 0.9202 0.2840
vn -0.6031 0.7634 0.2311
vn 0.0888 -0.9714 -0.2201
vn 0.4420 0.8577 0.2627
vn -0.4420 0.8577 0.2627
vn -0.0888 -0.9714 -0.2201
vn 0.6031 0.7634 0.2311
vn -0.2694 0.9202 0.2840
vn -0.2650 -0.9400 -0.2150
vn 0.7464 0.6377 0.1901
vn -0.0905 0.9513 0.2947
vn -0.4362 -0.8764 -0.2041
vn 0.8645 0.4824 0.1411
vn -0.5976 -0.7799 -0.1861
vn 0.9495 0.3016 0.0862
vn -0.0000 -0.7475 0.6643
vn 0.8819 -0.3131 -0.3524
vn -0.9952 0.0651 0.0733
vn 0.7730 -0.4214 -0.4742
vn -0.9569 0.1928 0.2170
vn 0.6344 -0.5135 -0.5778
vn -0.8819 0.3131 0.3524
vn 0.4714 -0.5858 -0.6592
vn 0.0980 0.6611 0.7439
vn -0.7730 0.4214 0.4742
vn 0.2903 -0.6357 -0.7153
vn 0.2903 0.6357 0.7153
vn -0.6344 0.5135 0.5778
vn 0.0980 -0.6611 -0.7439
vn 0.4714 0.5858 0.6592
vn -0.4714 0.5858 0.6592
vn -0.0980 -0.6611 -0.7439
vn 0.6344 0.5135 0.5778
vn -0.2903 0.6357 0.7153
vn -0.2903 -0.6357 -0.7153
vn 0.7730 0.4214 0.4742
vn -0.0980 0.6611 0.7439
vn -0.4714 -0.5858 -0.6592
vn 0.8819 0.3131 0.3524
vn -0.6344 -0.5135 -0.5778
vn 0.9569 0.1928 0.2170
vn -0.7730 -0.4214 -0.4742
vn 0.9952 0.0651 0.0733
vn -0.8819 -0.3131 -0.3524
vn 0.9952 -0.0651 -0.0733
vn -0.9569 -0.1928 -0.2170
vn 0.9569 -0.1928 -0.2170
usemtl mainUmbrella
s 1
f 49/1/1 3/2/2 50/3/3
f 64/4/4 5/5/5 65/6/6
f 62/7/7 2/8/8 61/9/9
f 66/10/10 1/11/11 70/12/12
f 42/13/13 4/14/14 47/15/15
f 64/4/4 46/16/16 5/5/5
f 62/7/7 59/17/17 2/8/8
f 49/1/1 60/18/18 3/2/2
f 42/13/13 45/19/19 4/14/14
f 66/10/10 67/20/20 1/11/11
f 55/21/21 44/22/22 15/23/23 43/24/24
f 43/24/24 15/23/23 45/19/19 42/13/13
f 46/16/16 64/4/4 6/25/25 9/26/26
f 9/26/26 6/25/25 42/13/13 47/15/15
f 54/27/27 55/21/21 8/28/28 14/29/29
f 14/29/29 8/28/28 52/30/30 56/31/31
f 38/32/32 58/33/33 12/34/34 57/35/35
f 57/35/35 12/34/34 59/17/17 62/7/7
f 60/18/18 49/1/1 7/36/36 13/37/37
f 13/37/37 7/36/36 62/7/7 61/9/9
f 64/4/4 65/6/6 10/38/38 63/39/39
f 63/39/39 10/38/38 67/20/20 66/10/10
f 68/40/40 38/32/32 69/41/41 11/42/42
f 11/42/42 69/41/41 66/10/10 70/12/12
f 2/8/8 59/17/17 84/43/43 17/44/44
f 9/26/26 47/15/15 75/45/45 19/46/46
f 14/29/29 56/31/31 81/47/47 79/48/48
f 58/33/33 39/49/49 16/50/50 82/51/51
f 13/37/37 61/9/9 24/52/52 25/53/53
f 11/42/42 70/12/12 22/54/54 23/55/55
f 3/2/2 60/18/18 85/56/56 90/57/57
f 61/9/9 2/8/8 17/44/44 24/52/52
f 15/23/23 44/22/22 71/58/58 72/59/59
f 50/3/3 3/2/2 90/57/57 76/60/60
f 12/34/34 58/33/33 82/51/51 83/61/61
f 10/38/38 65/6/6 86/62/62 20/63/63
f 5/5/5 46/16/16 74/64/64 88/65/65
f 45/19/19 15/23/23 72/59/59 73/66/66
f 4/14/14 45/19/19 73/66/66 18/67/67
f 47/15/15 4/14/14 18/67/67 75/45/45
f 59/17/17 12/34/34 83/61/61 84/43/43
f 67/20/20 10/38/38 20/63/63 87/68/68
f 1/11/11 67/20/20 87/68/68 89/69/69
f 46/16/16 9/26/26 19/46/46 74/64/64
f 54/27/27 14/29/29 79/48/48 80/70/70
f 65/6/6 5/5/5 88/65/65 86/62/62
f 60/18/18 13/37/37 25/53/53 85/56/56
f 68/40/40 11/42/42 23/55/55 21/71/71
f 39/49/49 68/40/40 21/71/71 16/50/50
f 70/12/12 1/11/11 89/69/69 22/54/54
f 75/45/45 18/67/67 110/72/72 31/73/73
f 71/58/58 92/74/74 29/75/75 93/76/76
f 89/69/69 87/68/68 108/77/77 26/78/78
f 86/62/62 88/65/65 30/79/79 107/80/80
f 16/50/50 21/71/71 109/81/81 111/82/82
f 22/54/54 89/69/69 26/78/78 34/83/83
f 17/44/44 84/43/43 104/84/84 112/85/85
f 82/51/51 16/50/50 111/82/82 102/86/86
f 85/56/56 25/53/53 36/87/87 105/88/88
f 90/57/57 85/56/56 105/88/88 27/89/89
f 25/53/53 24/52/52 106/90/90 36/87/87
f 24/52/52 17/44/44 112/85/85 106/90/90
f 20/63/63 86/62/62 107/80/80 33/91/91
f 91/92/92 78/93/93 98/94/94 28/95/95
f 87/68/68 20/63/63 33/91/91 108/77/77
f 72/59/59 71/58/58 93/76/76 37/96/96
f 76/60/60 90/57/57 27/89/89 96/97/97
f 21/71/71 23/55/55 35/98/98 109/81/81
f 73/66/66 72/59/59 37/96/96 94/99/99
f 92/74/74 80/70/70 100/100/100 29/75/75
f 23/55/55 22/54/54 34/83/83 35/98/98
f 74/64/64 19/46/46 32/101/101 95/102/102
f 81/47/47 91/92/92 28/95/95 101/103/103
f 88/65/65 74/64/64 95/102/102 30/79/79
f 19/46/46 75/45/45 31/73/73 32/101/101
f 18/67/67 73/66/66 94/99/99 110/72/72
f 55/21/21 41/104/104 44/22/22
f 38/32/32 39/49/49 58/33/33
f 52/30/30 40/105/105 56/31/31
f 52/30/30 53/106/106 40/105/105
f 55/21/21 54/27/27 41/104/104
f 38/32/32 68/40/40 39/49/49
f 49/1/1 50/3/3 51/107/107 48/108/108
f 48/108/108 51/107/107 53/106/106 52/30/30
f 40/105/105 53/106/106 78/93/93 91/92/92
f 51/107/107 50/3/3 76/60/60 77/109/109
f 41/104/104 54/27/27 80/70/70 92/74/74
f 56/31/31 40/105/105 91/92/92 81/47/47
f 53/106/106 51/107/107 77/109/109 78/93/93
f 44/22/22 41/104/104 92/74/74 71/58/58
f 77/109/109 76/60/60 96/97/97 97/110/110
f 78/93/93 77/109/109 97/110/110 98/94/94
f 80/70/70 79/48/48 99/111/111 100/100/100
f 79/48/48 81/47/47 101/103/103 99/111/111
f 83/61/61 82/51/51 102/86/86 103/112/112
f 84/43/43 83/61/61 103/112/112 104/84/84
f 64/4/4 63/39/39 66/10/10 69/41/41 38/32/32 57/35/35 62/7/7 7/36/36 49/1/1 48/108/108 52/30/30 8/28/28 55/21/21 43/24/24 42/13/13 6/25/25
f 161/113/113 162/114/114 115/115/115
f 176/116/116 177/117/117 117/118/118
f 174/119/119 173/120/120 114/121/121
f 178/122/122 182/123/123 113/124/124
f 154/125/125 159/126/126 116/127/127
f 176/116/116 117/118/118 158/128/128
f 174/119/119 114/121/121 171/129/129
f 161/113/113 115/115/115 172/130/130
f 154/125/125 116/127/127 157/131/131
f 178/122/122 113/124/124 179/132/132
f 167/133/133 155/134/134 127/135/135 156/136/136
f 155/134/134 154/125/125 157/131/131 127/135/135
f 158/128/128 121/137/137 118/138/138 176/116/116
f 121/137/137 159/126/126 154/125/125 118/138/138
f 166/139/139 126/140/140 120/141/141 167/133/133
f 126/140/140 168/142/142 164/143/143 120/141/141
f 150/144/144 169/145/145 124/146/146 170/147/147
f 169/145/145 174/119/119 171/129/129 124/146/146
f 172/130/130 125/148/148 119/149/149 161/113/113
f 125/148/148 173/120/120 174/119/119 119/149/149
f 176/116/116 175/150/150 122/151/151 177/117/117
f 175/150/150 178/122/122 179/132/132 122/151/151
f 180/152/152 123/153/153 181/154/154 150/144/144
f 123/153/153 182/123/123 178/122/122 181/154/154
f 114/121/121 129/155/155 196/156/156 171/129/129
f 121/137/137 131/157/157 187/158/158 159/126/126
f 126/140/140 191/159/159 193/160/160 168/142/142
f 170/147/147 194/161/161 128/162/162 151/163/163
f 125/148/148 137/164/164 136/165/165 173/120/120
f 123/153/153 135/166/166 134/167/167 182/123/123
f 115/115/115 202/168/168 197/169/169 172/130/130
f 173/120/120 136/165/165 129/155/155 114/121/121
f 127/135/135 184/170/170 183/171/171 156/136/136
f 162/114/114 188/172/172 202/168/168 115/115/115
f 124/146/146 195/173/173 194/161/161 170/147/147
f 122/151/151 132/174/174 198/175/175 177/117/117
f 117/118/118 200/176/176 186/177/177 158/128/128
f 157/131/131 185/178/178 184/170/170 127/135/135
f 116/127/127 130/179/179 185/178/178 157/131/131
f 159/126/126 187/158/158 130/179/179 116/127/127
f 171/129/129 196/156/156 195/173/173 124/146/146
f 179/132/132 199/180/180 132/174/174 122/151/151
f 113/124/124 201/181/181 199/180/180 179/132/132
f 158/128/128 186/177/177 131/157/157 121/137/137
f 166/139/139 192/182/182 191/159/159 126/140/140
f 177/117/117 198/175/175 200/176/176 117/118/118
f 172/130/130 197/169/169 137/164/164 125/148/148
f 180/152/152 133/183/183 135/166/166 123/153/153
f 151/163/163 128/162/162 133/183/183 180/152/152
f 182/123/123 134/167/167 201/181/181 113/124/124
f 187/158/158 143/184/184 222/185/185 130/179/179
f 183/171/171 205/186/186 141/187/187 204/188/188
f 201/181/181 138/189/189 220/190/190 199/180/180
f 198/175/175 219/191/191 142/192/192 200/176/176
f 128/162/162 223/193/193 221/194/194 133/183/183
f 134/167/167 146/195/195 138/189/189 201/181/181
f 129/155/155 224/196/196 216/197/197 196/156/156
f 194/161/161 214/198/198 223/193/193 128/162/162
f 197/169/169 217/199/199 148/200/200 137/164/164
f 202/168/168 139/201/201 217/199/199 197/169/169
f 137/164/164 148/200/200 218/202/202 136/165/165
f 136/165/165 218/202/202 224/196/196 129/155/155
f 132/174/174 145/203/203 219/191/191 198/175/175
f 203/204/204 140/205/205 210/206/206 190/207/207
f 199/180/180 220/190/190 145/203/203 132/174/174
f 184/170/170 149/208/208 205/186/186 183/171/171
f 188/172/172 208/209/209 139/201/201 202/168/168
f 133/183/183 221/194/194 147/210/210 135/166/166
f 185/178/178 206/211/211 149/208/208 184/170/170
f 204/188/188 141/187/187 212/212/212 192/182/182
f 135/166/166 147/210/210 146/195/195 134/167/167
f 186/177/177 207/213/213 144/214/214 131/157/157
f 193/160/160 213/215/215 140/205/205 203/204/204
f 200/176/176 142/192/192 207/213/213 186/177/177
f 131/157/157 144/214/214 143/184/184 187/158/158
f 130/179/179 222/185/185 206/211/211 185/178/178
f 167/133/133 156/136/136 153/216/216
f 150/144/144 170/147/147 151/163/163
f 164/143/143 168/142/142 152/217/217
f 164/143/143 152/217/217 165/218/218
f 167/133/133 153/216/216 166/139/139
f 150/144/144 151/163/163 180/152/152
f 161/113/113 160/219/219 163/220/220 162/114/114
f 160/219/219 164/143/143 165/218/218 163/220/220
f 152/217/217 203/204/204 190/207/207 165/218/218
f 163/220/220 189/221/221 188/172/172 162/114/114
f 153/216/216 204/188/188 192/182/182 166/139/139
f 168/142/142 193/160/160 203/204/204 152/217/217
f 165/218/218 190/207/207 189/221/221 163/220/220
f 156/136/136 183/171/171 204/188/188 153/216/216
f 189/221/221 209/222/222 208/209/209 188/172/172
f 190/207/207 210/206/206 209/222/222 189/221/221
f 192/182/182 212/212/212 211/223/223 191/159/159
f 191/159/159 211/223/223 213/215/215 193/160/160
f 195/173/173 215/224/224 214/198/198 194/161/161
f 196/156/156 216/197/197 215/224/224 195/173/173
f 176/116/116 118/138/138 154/125/125 155/134/134 167/133/133 120/141/141 164/143/143 160/219/219 161/113/113 119/149/149 174/119/119 169/145/145 150/144/144 181/154/154 178/122/122 175/150/150
f 94/99/225 206/211/226 222/185/227 110/72/227
f 110/72/227 222/185/227 143/184/228 31/73/229
f 108/77/230 220/190/231 138/189/232 26/78/233
f 30/79/234 142/192/234 219/191/235 107/80/236
f 105/88/237 217/199/238 139/201/239 27/89/239
f 97/110/240 96/97/241 208/209/242 209/222/240
f 98/94/243 210/206/244 140/205/245 28/95/245
f 98/94/243 97/110/246 209/222/246 210/206/244
f 93/76/247 205/186/248 149/208/249 37/96/249
f 27/89/239 139/201/239 208/209/242 96/97/241
f 100/100/250 99/111/251 211/223/251 212/212/252
f 37/96/253 149/208/253 206/211/226 94/99/225
f 100/100/250 212/212/252 141/187/254 29/75/254
f 99/111/255 101/103/256 213/215/257 211/223/255
f 32/101/258 144/214/258 207/213/259 95/102/260
f 28/95/245 140/205/245 213/215/257 101/103/256
f 103/112/261 102/86/262 214/198/263 215/224/261
f 36/87/264 148/200/264 217/199/238 105/88/237
f 29/75/254 141/187/254 205/186/248 93/76/247
f 104/84/265 103/112/266 215/224/266 216/197/267
f 106/90/268 218/202/269 148/200/270 36/87/270
f 109/81/271 221/194/272 223/193/273 111/82/273
f 31/73/229 143/184/228 144/214/274 32/101/274
f 107/80/236 219/191/235 145/203/275 33/91/275
f 104/84/265 216/197/267 224/196/276 112/85/276
f 34/83/277 146/195/278 147/210/279 35/98/279
f 33/91/280 145/203/280 220/190/231 108/77/230
f 111/82/273 223/193/273 214/198/263 102/86/262
f 26/78/233 138/189/232 146/195/278 34/83/277
f 35/98/281 147/210/281 221/194/272 109/81/271
f 112/85/276 224/196/276 218/202/269 106/90/268
f 95/102/260 207/213/259 142/192/234 30/79/234
usemtl handelUmbrella
f 225/225/282 226/226/282 228/227/282 227/228/282
f 227/228/283 228/227/283 230/229/283 229/230/283
f 229/230/284 230/229/284 232/231/284 231/232/284
f 231/232/285 232/231/285 234/233/285 233/234/285
f 233/234/286 234/233/286 236/235/286 235/236/286
f 235/236/287 236/235/287 238/237/287 237/238/287
f 237/238/288 238/237/288 240/239/288 239/240/288
f 239/240/289 240/239/289 242/241/289 241/242/289
f 241/242/290 242/241/290 244/243/290 243/244/290
f 243/244/291 244/243/291 246/245/291 245/246/291
f 245/246/292 246/245/292 248/247/292 247/248/292
f 247/248/293 248/247/293 250/249/293 249/250/293
f 249/250/294 250/249/294 252/251/294 251/252/294
f 251/252/295 252/251/295 254/253/295 253/254/295
f 253/254/296 254/253/296 256/255/296 255/256/296
f 255/256/297 256/255/297 258/257/297 257/258/297
f 257/258/298 258/257/298 260/259/298 259/260/298
f 259/260/299 260/259/299 262/261/299 261/262/299
f 261/262/300 262/261/300 264/263/300 263/264/300
f 263/264/301 264/263/301 266/265/301 265/266/301
f 265/266/302 266/265/302 268/267/302 267/268/302
f 267/268/303 268/267/303 270/269/303 269/270/303
f 269/270/304 270/269/304 272/271/304 271/272/304
f 271/272/305 272/271/305 274/273/305 273/274/305
f 273/274/306 274/273/306 276/275/306 275/276/306
f 275/276/307 276/275/307 278/277/307 277/278/307
f 277/278/308 278/277/308 280/279/308 279/280/308
f 279/280/309 280/279/309 282/281/309 281/282/309
f 281/282/310 282/281/310 284/283/310 283/284/310
f 283/284/311 284/283/311 286/285/311 285/286/311
f 238/237/312 236/235/312 294/287/312 295/288/312
f 285/286/313 286/285/313 288/289/313 287/290/313
f 287/290/314 288/289/314 226/291/314 225/292/314
f 225/293/315 227/294/315 229/295/315 231/296/315 233/297/315 235/298/315 237/299/315 239/300/315 241/301/315 243/302/315 245/303/315 247/304/315 249/305/315 251/306/315 253/307/315 255/308/315 257/309/315 259/310/315 261/311/315 263/312/315 265/313/315 267/314/315 269/315/315 271/316/315 273/317/315 275/318/315 277/319/315 279/320/315 281/321/315 283/322/315 285/323/315 287/324/315
f 304/325/316 303/326/316 335/327/316 336/328/316
f 256/255/317 254/253/317 303/326/317 304/325/317
f 274/273/318 272/271/318 312/329/318 313/330/318
f 230/229/319 228/227/319 290/331/319 291/332/319
f 248/247/320 246/245/320 299/333/320 300/334/320
f 266/265/321 264/263/321 308/335/321 309/336/321
f 284/283/322 282/281/322 317/337/322 318/338/322
f 240/239/323 238/237/323 295/288/323 296/339/323
f 258/257/324 256/255/324 304/325/324 305/340/324
f 276/275/325 274/273/325 313/330/325 314/341/325
f 232/231/326 230/229/326 291/332/326 292/342/326
f 250/249/327 248/247/327 300/334/327 301/343/327
f 268/267/328 266/265/328 309/336/328 310/344/328
f 286/285/329 284/283/329 318/338/329 319/345/329
f 242/241/330 240/239/330 296/339/330 297/346/330
f 260/259/331 258/257/331 305/340/331 306/347/331
f 278/277/332 276/275/332 314/341/332 315/348/332
f 234/233/333 232/231/333 292/342/333 293/349/333
f 252/251/334 250/249/334 301/343/334 302/350/334
f 270/269/335 268/267/335 310/344/335 311/351/335
f 288/289/336 286/285/336 319/345/336 320/352/336
f 244/243/337 242/241/337 297/346/337 298/353/337
f 262/261/338 260/259/338 306/347/338 307/354/338
f 280/279/339 278/277/339 315/348/339 316/355/339
f 236/235/340 234/233/340 293/349/340 294/287/340
f 254/253/341 252/251/341 302/350/341 303/326/341
f 272/271/342 270/269/342 311/351/342 312/329/342
f 228/227/343 226/226/343 289/356/343 290/331/343
f 226/291/344 288/289/344 320/352/344 289/357/344
f 246/245/345 244/243/345 298/353/345 299/333/345
f 264/263/346 262/261/346 307/354/346 308/335/346
f 282/281/347 280/279/347 316/355/347 317/337/347
f 339/358/348 338/359/348 370/360/348 371/361/348
f 291/332/349 290/331/349 322/362/349 323/363/349
f 318/338/350 317/337/350 349/364/350 350/365/350
f 305/340/351 304/325/351 336/328/351 337/366/351
f 292/342/352 291/332/352 323/363/352 324/367/352
f 319/345/353 318/338/353 350/365/353 351/368/353
f 306/347/354 305/340/354 337/366/354 338/359/354
f 293/349/355 292/342/355 324/367/355 325/369/355
f 320/352/356 319/345/356 351/368/356 352/370/356
f 307/354/357 306/347/357 338/359/357 339/358/357
f 294/287/358 293/349/358 325/369/358 326/371/358
f 289/357/359 320/352/359 352/370/359 321/372/359
f 308/335/360 307/354/360 339/358/360 340/373/360
f 295/288/361 294/287/361 326/371/361 327/374/361
f 309/336/362 308/335/362 340/373/362 341/375/362
f 296/339/363 295/288/363 327/374/363 328/376/363
f 310/344/364 309/336/364 341/375/364 342/377/364
f 297/346/365 296/339/365 328/376/365 329/378/365
f 311/351/366 310/344/366 342/377/366 343/379/366
f 298/353/367 297/346/367 329/378/367 330/380/367
f 312/329/368 311/351/368 343/379/368 344/381/368
f 299/333/369 298/353/369 330/380/369 331/382/369
f 313/330/370 312/329/370 344/381/370 345/383/370
f 300/334/371 299/333/371 331/382/371 332/384/371
f 314/341/372 313/330/372 345/383/372 346/385/372
f 301/343/373 300/334/373 332/384/373 333/386/373
f 315/348/374 314/341/374 346/385/374 347/387/374
f 302/350/375 301/343/375 333/386/375 334/388/375
f 316/355/376 315/348/376 347/387/376 348/389/376
f 303/326/377 302/350/377 334/388/377 335/327/377
f 290/331/378 289/356/378 321/390/378 322/362/378
f 317/337/379 316/355/379 348/389/379 349/364/379
f 374/391/380 373/392/380 405/393/380 406/394/380
f 326/371/381 325/369/381 357/395/381 358/396/381
f 321/372/382 352/370/382 384/397/382 353/398/382
f 340/373/383 339/358/383 371/361/383 372/399/383
f 327/374/384 326/371/384 358/396/384 359/400/384
f 341/375/385 340/373/385 372/399/385 373/392/385
f 328/376/386 327/374/386 359/400/386 360/401/386
f 342/377/387 341/375/387 373/392/387 374/391/387
f 329/378/388 328/376/388 360/401/388 361/402/388
f 343/379/389 342/377/389 374/391/389 375/403/389
f 330/380/390 329/378/390 361/402/390 362/404/390
f 344/381/391 343/379/391 375/403/391 376/405/391
f 331/382/392 330/380/392 362/404/392 363/406/392
f 345/383/393 344/381/393 376/405/393 377/407/393
f 332/384/394 331/382/394 363/406/394 364/408/394
f 346/385/395 345/383/395 377/407/395 378/409/395
f 333/386/396 332/384/396 364/408/396 365/410/396
f 347/387/397 346/385/397 378/409/397 379/411/397
f 334/388/398 333/386/398 365/410/398 366/412/398
f 348/389/399 347/387/399 379/411/399 380/413/399
f 335/327/400 334/388/400 366/412/400 367/414/400
f 322/362/401 321/390/401 353/415/401 354/416/401
f 349/364/402 348/389/402 380/413/402 381/417/402
f 336/328/403 335/327/403 367/414/403 368/418/403
f 323/363/404 322/362/404 354/416/404 355/419/404
f 350/365/405 349/364/405 381/417/405 382/420/405
f 337/366/406 336/328/406 368/418/406 369/421/406
f 324/367/407 323/363/407 355/419/407 356/422/407
f 351/368/408 350/365/408 382/420/408 383/423/408
f 338/359/409 337/366/409 369/421/409 370/360/409
f 325/369/410 324/367/410 356/422/410 357/395/410
f 352/370/411 351/368/411 383/423/411 384/397/411
f 409/424/412 408/425/412 440/426/412 441/427/412
f 361/402/413 360/401/413 392/428/413 393/429/413
f 375/403/414 374/391/414 406/394/414 407/430/414
f 362/404/415 361/402/415 393/429/415 394/431/415
f 376/405/416 375/403/416 407/430/416 408/425/416
f 363/406/417 362/404/417 394/431/417 395/432/417
f 377/407/418 376/405/418 408/425/418 409/424/418
f 364/408/419 363/406/419 395/432/419 396/433/419
f 378/409/420 377/407/420 409/424/420 410/434/420
f 365/410/421 364/408/421 396/433/421 397/435/421
f 379/411/422 378/409/422 410/434/422 411/436/422
f 366/412/423 365/410/423 397/435/423 398/437/423
f 380/413/424 379/411/424 411/436/424 412/438/424
f 367/414/425 366/412/425 398/437/425 399/439/425
f 354/416/426 353/415/426 385/440/426 386/441/426
f 381/417/427 380/413/427 412/438/427 413/442/427
f 368/418/428 367/414/428 399/439/428 400/443/428
f 355/419/429 354/416/429 386/441/429 387/444/429
f 382/420/430 381/417/430 413/442/430 414/445/430
f 369/421/431 368/418/431 400/443/431 401/446/431
f 356/422/432 355/419/432 387/444/432 388/447/432
f 383/423/433 382/420/433 414/445/433 415/448/433
f 370/360/434 369/421/434 401/446/434 402/449/434
f 357/395/435 356/422/435 388/447/435 389/450/435
f 384/397/436 383/423/436 415/448/436 416/451/436
f 371/361/437 370/360/437 402/449/437 403/452/437
f 358/396/438 357/395/438 389/450/438 390/453/438
f 353/398/439 384/397/439 416/451/439 385/454/439
f 372/399/440 371/361/440 403/452/440 404/455/440
f 359/400/441 358/396/441 390/453/441 391/456/441
f 373/392/442 372/399/442 404/455/442 405/393/442
f 360/401/443 359/400/443 391/456/443 392/428/443
f 418/457/444 417/458/444 448/459/444 447/460/444 446/461/444 445/462/444 444/463/444 443/464/444 442/465/444 441/466/444 440/467/444 439/468/444 438/469/444 437/470/444 436/471/444 435/472/444 434/473/444 433/474/444 432/475/444 431/476/444 430/477/444 429/478/444 428/479/444 427/480/444 426/481/444 425/482/444 424/483/444 423/484/444 422/485/444 421/486/444 420/487/444 419/488/444
f 396/433/445 395/432/445 427/489/445 428/490/445
f 410/434/446 409/424/446 441/427/446 442/491/446
f 397/435/447 396/433/447 428/490/447 429/492/447
f 411/436/448 410/434/448 442/491/448 443/493/448
f 398/437/449 397/435/449 429/492/449 430/494/449
f 412/438/450 411/436/450 443/493/450 444/495/450
f 399/439/451 398/437/451 430/494/451 431/496/451
f 386/441/452 385/440/452 417/497/452 418/498/452
f 413/442/453 412/438/453 444/495/453 445/499/453
f 400/443/454 399/439/454 431/496/454 432/500/454
f 387/444/455 386/441/455 418/498/455 419/501/455
f 414/445/456 413/442/456 445/499/456 446/502/456
f 401/446/457 400/443/457 432/500/457 433/503/457
f 388/447/458 387/444/458 419/501/458 420/504/458
f 415/448/459 414/445/459 446/502/459 447/505/459
f 402/449/460 401/446/460 433/503/460 434/506/460
f 389/450/461 388/447/461 420/504/461 421/507/461
f 416/451/462 415/448/462 447/505/462 448/508/462
f 403/452/463 402/449/463 434/506/463 435/509/463
f 390/453/464 389/450/464 421/507/464 422/510/464
f 385/454/465 416/451/465 448/508/465 417/511/465
f 404/455/466 403/452/466 435/509/466 436/512/466
f 391/456/467 390/453/467 422/510/467 423/513/467
f 405/393/468 404/455/468 436/512/468 437/514/468
f 392/428/469 391/456/469 423/513/469 424/515/469
f 406/394/470 405/393/470 437/514/470 438/516/470
f 393/429/471 392/428/471 424/515/471 425/517/471
f 407/430/472 406/394/472 438/516/472 439/518/472
f 394/431/473 393/429/473 425/517/473 426/519/473
f 408/425/474 407/430/474 439/518/474 440/426/474
f 395/432/475 394/431/475 426/519/475 427/489/475
o Cone
v 0.000019 0.351809 1.826172
v 0.038701 0.297474 1.814546
v 0.070417 0.347878 1.839058
v 0.110176 0.297474 1.844152
v 0.129329 0.351701 1.879703
v 0.164881 0.297474 1.898856
v 0.168663 0.352874 1.939158
v 0.194486 0.297474 1.970331
v 0.182328 0.353683 2.009013
v 0.194486 0.297474 2.047694
v 0.168663 0.352874 2.078867
v 0.164881 0.297474 2.119169
v 0.129329 0.351701 2.138322
v 0.110176 0.297474 2.173874
v 0.070417 0.347878 2.178967
v 0.038701 0.297474 2.203480
v 0.000019 0.351809 2.191853
v -0.038662 0.297474 2.203480
v -0.069742 0.353731 2.177431
v -0.110137 0.297474 2.173874
v -0.129220 0.352049 2.138252
v -0.164842 0.297474 2.119169
v -0.169161 0.350827 2.079089
v -0.194448 0.297474 2.047694
v -0.182289 0.353683 2.009013
v -0.194448 0.297474 1.970331
v -0.169161 0.350827 1.938936
v -0.164842 0.297474 1.898856
v -0.129220 0.352049 1.879773
v -0.110137 0.297474 1.844152
v -0.069742 0.353731 1.840594
v -0.038662 0.297474 1.814546
v 0.000009 1.659781 2.009012
v 0.000000 0.802757 2.028519
v 0.000000 0.149770 2.028519
v -0.001978 0.802757 2.028324
v -0.001978 0.149770 2.028324
v -0.003879 0.802757 2.027747
v -0.003879 0.149770 2.027747
v -0.005632 0.802757 2.026810
v -0.005632 0.149770 2.026810
v -0.007168 0.802757 2.025550
v -0.007168 0.149770 2.025550
v -0.008429 0.802757 2.024014
v -0.008429 0.149770 2.024014
v -0.009365 0.802757 2.022261
v -0.009365 0.149770 2.022261
v -0.009942 0.802757 2.020359
v -0.009942 0.149770 2.020360
v -0.010137 0.802757 2.018382
v -0.010137 0.149770 2.018382
v -0.009942 0.802757 2.016404
v -0.009942 0.149770 2.016404
v -0.009365 0.802757 2.014503
v -0.009365 0.149770 2.014503
v -0.008429 0.802757 2.012750
v -0.008429 0.149770 2.012750
v -0.007168 0.802757 2.011214
v -0.007168 0.149770 2.011214
v -0.005632 0.802757 2.009953
v -0.005632 0.149770 2.009953
v -0.003879 0.802757 2.009016
v -0.003879 0.149770 2.009017
v -0.001978 0.802757 2.008440
v -0.001978 0.149770 2.008440
v 0.000000 0.802757 2.008245
v 0.000000 0.149770 2.008245
v 0.001978 0.802757 2.008440
v 0.001978 0.149770 2.008440
v 0.003879 0.802757 2.009016
v 0.003879 0.149770 2.009017
v 0.005632 0.802757 2.009953
v 0.005632 0.149770 2.009953
v 0.007168 0.802757 2.011214
v 0.007168 0.149770 2.011214
v 0.008429 0.802757 2.012750
v 0.008429 0.149770 2.012750
v 0.009365 0.802757 2.014503
v 0.009365 0.149770 2.014503
v 0.009942 0.802757 2.016404
v 0.009942 0.149770 2.016404
v 0.010137 0.802757 2.018382
v 0.010137 0.149770 2.018382
v 0.009942 0.802757 2.020359
v 0.009942 0.149770 2.020360
v 0.009365 0.802757 2.022261
v 0.009365 0.149770 2.022261
v 0.008429 0.802757 2.024014
v 0.008429 0.149770 2.024014
v 0.007168 0.802757 2.025550
v 0.007168 0.149770 2.025550
v 0.005632 0.802757 2.026810
v 0.005632 0.149770 2.026810
v 0.003879 0.802757 2.027747
v 0.003879 0.149770 2.027747
v 0.001978 0.802757 2.028324
v 0.001978 0.149770 2.028324
v 0.000000 0.059644 2.014583
v -0.001978 0.059677 2.014391
v -0.003879 0.059777 2.013823
v -0.005632 0.059939 2.012901
v -0.007168 0.060157 2.011659
v -0.008429 0.060422 2.010146
v -0.009365 0.060725 2.008420
v -0.009942 0.061054 2.006547
v -0.010137 0.061396 2.004599
v -0.009942 0.061737 2.002651
v -0.009365 0.062066 2.000778
v -0.008429 0.062369 1.999052
v -0.007168 0.062634 1.997539
v -0.005632 0.062852 1.996297
v -0.003879 0.063014 1.995374
v -0.001978 0.063114 1.994806
v 0.000000 0.063147 1.994614
v 0.001978 0.063114 1.994806
v 0.003879 0.063014 1.995374
v 0.005632 0.062852 1.996297
v 0.007168 0.062634 1.997539
v 0.008429 0.062369 1.999052
v 0.009365 0.062066 2.000778
v 0.009942 0.061737 2.002651
v 0.010137 0.061396 2.004599
v 0.009942 0.061054 2.006547
v 0.009365 0.060725 2.008420
v 0.008429 0.060422 2.010146
v 0.007168 0.060157 2.011659
v 0.005632 0.059939 2.012901
v 0.003879 0.059777 2.013823
v 0.001978 0.059677 2.014391
v 0.000000 0.012475 1.980965
v -0.001978 0.012662 1.980908
v -0.003879 0.013213 1.980740
v -0.005632 0.014109 1.980467
v -0.007168 0.015315 1.980100
v -0.008429 0.016785 1.979652
v -0.009365 0.018461 1.979141
v -0.009942 0.020280 1.978586
v -0.010137 0.022172 1.978010
v -0.009942 0.024064 1.977433
v -0.009365 0.025883 1.976879
v -0.008429 0.027559 1.976368
v -0.007168 0.029028 1.975920
v -0.005632 0.030234 1.975553
v -0.003879 0.031130 1.975279
v -0.001978 0.031682 1.975111
v 0.000000 0.031869 1.975055
v 0.001978 0.031682 1.975111
v 0.003879 0.031130 1.975279
v 0.005632 0.030234 1.975553
v 0.007168 0.029028 1.975920
v 0.008429 0.027559 1.976368
v 0.009365 0.025883 1.976879
v 0.009942 0.024064 1.977433
v 0.010137 0.022172 1.978010
v 0.009942 0.020280 1.978586
v 0.009365 0.018461 1.979141
v 0.008429 0.016785 1.979652
v 0.007168 0.015315 1.980100
v 0.005632 0.014109 1.980467
v 0.003879 0.013213 1.980740
v 0.001978 0.012662 1.980908
v 0.000000 0.000240 1.937354
v -0.001978 0.000433 1.937384
v -0.003879 0.001003 1.937473
v -0.005632 0.001928 1.937617
v -0.007168 0.003174 1.937811
v -0.008429 0.004692 1.938047
v -0.009365 0.006423 1.938317
v -0.009942 0.008302 1.938610
v -0.010137 0.010256 1.938914
v -0.009942 0.012210 1.939219
v -0.009365 0.014089 1.939511
v -0.008429 0.015821 1.939781
v -0.007168 0.017339 1.940018
v -0.005632 0.018584 1.940212
v -0.003879 0.019510 1.940356
v -0.001978 0.020080 1.940445
v 0.000000 0.020272 1.940475
v 0.001978 0.020080 1.940445
v 0.003879 0.019510 1.940356
v 0.005632 0.018584 1.940212
v 0.007168 0.017339 1.940018
v 0.008429 0.015821 1.939781
v 0.009365 0.014089 1.939511
v 0.009942 0.012210 1.939219
v 0.010137 0.010256 1.938914
v 0.009942 0.008302 1.938610
v 0.009365 0.006423 1.938317
v 0.008429 0.004692 1.938047
v 0.007168 0.003174 1.937811
v 0.005632 0.001928 1.937617
v 0.003879 0.001003 1.937473
v 0.001978 0.000433 1.937384
v 0.000000 0.014415 1.891650
v -0.001978 0.014544 1.891796
v -0.003879 0.014927 1.892227
v -0.005632 0.015550 1.892927
v -0.007168 0.016387 1.893869
v -0.008429 0.017407 1.895018
v -0.009365 0.018572 1.896327
v -0.009942 0.019835 1.897749
v -0.010137 0.021148 1.899227
v -0.009942 0.022462 1.900705
v -0.009365 0.023725 1.902127
v -0.008429 0.024890 1.903437
v -0.007168 0.025910 1.904585
v -0.005632 0.026747 1.905527
v -0.003879 0.027370 1.906228
v -0.001978 0.027753 1.906659
v 0.000000 0.027882 1.906804
v 0.001978 0.027753 1.906659
v 0.003879 0.027370 1.906228
v 0.005632 0.026747 1.905527
v 0.007168 0.025910 1.904585
v 0.008429 0.024890 1.903437
v 0.009365 0.023725 1.902127
v 0.009942 0.022462 1.900705
v 0.010137 0.021148 1.899227
v 0.009942 0.019835 1.897749
v 0.009365 0.018572 1.896327
v 0.008429 0.017407 1.895018
v 0.007168 0.016387 1.893869
v 0.005632 0.015550 1.892927
v 0.003879 0.014927 1.892227
v 0.001978 0.014544 1.891796
v 0.000000 0.054286 1.856217
v -0.001978 0.054415 1.856363
v -0.003879 0.054799 1.856794
v -0.005632 0.055421 1.857494
v -0.007168 0.056258 1.858436
v -0.008429 0.057279 1.859585
v -0.009365 0.058443 1.860895
v -0.009942 0.059706 1.862316
v -0.010137 0.061020 1.863794
v -0.009942 0.062333 1.865273
v -0.009365 0.063597 1.866694
v -0.008429 0.064761 1.868004
v -0.007168 0.065781 1.869152
v -0.005632 0.066619 1.870095
v -0.003879 0.067241 1.870795
v -0.001978 0.067624 1.871226
v 0.000000 0.067754 1.871372
v 0.001978 0.067624 1.871226
v 0.003879 0.067241 1.870795
v 0.005632 0.066619 1.870095
v 0.007168 0.065781 1.869152
v 0.008429 0.064761 1.868004
v 0.009365 0.063597 1.866694
v 0.009942 0.062333 1.865273
v 0.010137 0.061020 1.863794
v 0.009942 0.059706 1.862316
v 0.009365 0.058443 1.860895
v 0.008429 0.057279 1.859585
v 0.007168 0.056258 1.858436
v 0.005632 0.055421 1.857494
v 0.003879 0.054799 1.856794
v 0.001978 0.054415 1.856363
vt 0.250000 0.471316
vt 0.250000 0.250000
vt 0.296822 0.485388
vt 0.335211 0.455718
vt 0.383337 0.449553
vt 0.406520 0.406520
vt 0.449553 0.383337
vt 0.454131 0.334554
vt 0.485388 0.296822
vt 0.470671 0.250000
vt 0.485388 0.203178
vt 0.454131 0.165446
vt 0.449553 0.116663
vt 0.406520 0.093480
vt 0.383337 0.050447
vt 0.335211 0.044282
vt 0.296822 0.014612
vt 0.250000 0.028685
vt 0.203178 0.014612
vt 0.165559 0.046142
vt 0.116663 0.050447
vt 0.093565 0.093565
vt 0.050447 0.116663
vt 0.045219 0.165177
vt 0.014612 0.203178
vt 0.029329 0.250000
vt 0.014612 0.296822
vt 0.045219 0.334823
vt 0.050447 0.383337
vt 0.093565 0.406435
vt 0.116663 0.449553
vt 0.165559 0.453858
vt 0.203178 0.485388
vt 1.000000 0.500000
vt 1.000000 1.000000
vt 0.968750 1.000000
vt 0.968750 0.500000
vt 0.937500 1.000000
vt 0.937500 0.500000
vt 0.906250 1.000000
vt 0.906250 0.500000
vt 0.875000 1.000000
vt 0.875000 0.500000
vt 0.843750 1.000000
vt 0.843750 0.500000
vt 0.812500 1.000000
vt 0.812500 0.500000
vt 0.781250 1.000000
vt 0.781250 0.500000
vt 0.750000 1.000000
vt 0.750000 0.500000
vt 0.718750 1.000000
vt 0.718750 0.500000
vt 0.687500 1.000000
vt 0.687500 0.500000
vt 0.656250 1.000000
vt 0.656250 0.500000
vt 0.625000 1.000000
vt 0.625000 0.500000
vt 0.593750 1.000000
vt 0.593750 0.500000
vt 0.562500 1.000000
vt 0.562500 0.500000
vt 0.531250 1.000000
vt 0.531250 0.500000
vt 0.500000 1.000000
vt 0.500000 0.500000
vt 0.468750 1.000000
vt 0.468750 0.500000
vt 0.437500 1.000000
vt 0.437500 0.500000
vt 0.406250 1.000000
vt 0.406250 0.500000
vt 0.375000 1.000000
vt 0.375000 0.500000
vt 0.343750 1.000000
vt 0.343750 0.500000
vt 0.312500 1.000000
vt 0.312500 0.500000
vt 0.281250 1.000000
vt 0.281250 0.500000
vt 0.250000 1.000000
vt 0.250000 0.500000
vt 0.218750 1.000000
vt 0.218750 0.500000
vt 0.187500 1.000000
vt 0.187500 0.500000
vt 0.156250 1.000000
vt 0.156250 0.500000
vt 0.125000 1.000000
vt 0.125000 0.500000
vt 0.093750 1.000000
vt 0.093750 0.500000
vt 0.062500 1.000000
vt 0.062500 0.500000
vt 0.843750 1.000000
vt 0.812500 1.000000
vt 0.031250 1.000000
vt 0.031250 0.500000
vt 0.000000 1.000000
vt 0.000000 0.500000
vt 0.750000 0.490000
vt 0.796822 0.485388
vt 0.841844 0.471731
vt 0.883337 0.449553
vt 0.919706 0.419706
vt 0.949553 0.383337
vt 0.971731 0.341844
vt 0.985388 0.296822
vt 0.990000 0.250000
vt 0.985388 0.203178
vt 0.971731 0.158156
vt 0.949553 0.116663
vt 0.919706 0.080294
vt 0.883337 0.050447
vt 0.841844 0.028269
vt 0.796822 0.014612
vt 0.750000 0.010000
vt 0.703178 0.014612
vt 0.658156 0.028269
vt 0.616663 0.050447
vt 0.580294 0.080294
vt 0.550447 0.116663
vt 0.528269 0.158156
vt 0.514612 0.203178
vt 0.510000 0.250000
vt 0.514612 0.296822
vt 0.528269 0.341844
vt 0.550447 0.383337
vt 0.580294 0.419706
vt 0.616663 0.449553
vt 0.658156 0.471731
vt 0.703178 0.485388
vt 0.531250 1.000000
vt 0.562500 1.000000
vt 0.562500 1.000000
vt 0.531250 1.000000
vt 0.281250 1.000000
vt 0.250000 1.000000
vt 0.968750 1.000000
vt 0.937500 1.000000
vt 0.687500 1.000000
vt 0.656250 1.000000
vt 0.406250 1.000000
vt 0.375000 1.000000
vt 0.125000 1.000000
vt 0.093750 1.000000
vt 0.781250 1.000000
vt 0.500000 1.000000
vt 0.218750 1.000000
vt 0.906250 1.000000
vt 0.625000 1.000000
vt 0.343750 1.000000
vt 0.062500 1.000000
vt 0.750000 1.000000
vt 0.468750 1.000000
vt 0.187500 1.000000
vt 0.875000 1.000000
vt 0.593750 1.000000
vt 0.312500 1.000000
vt 0.031250 1.000000
vt 0.718750 1.000000
vt 0.437500 1.000000
vt 0.156250 1.000000
vt 1.000000 1.000000
vt 0.000000 1.000000
vt 0.437500 1.000000
vt 0.468750 1.000000
vt 0.468750 1.000000
vt 0.437500 1.000000
vt 0.968750 1.000000
vt 0.937500 1.000000
vt 0.125000 1.000000
vt 0.093750 1.000000
vt 0.500000 1.000000
vt 0.906250 1.000000
vt 0.062500 1.000000
vt 0.875000 1.000000
vt 0.031250 1.000000
vt 0.843750 1.000000
vt 0.000000 1.000000
vt 0.406250 1.000000
vt 0.812500 1.000000
vt 0.375000 1.000000
vt 0.781250 1.000000
vt 0.343750 1.000000
vt 0.750000 1.000000
vt 0.312500 1.000000
vt 0.718750 1.000000
vt 0.281250 1.000000
vt 0.687500 1.000000
vt 0.250000 1.000000
vt 0.656250 1.000000
vt 0.218750 1.000000
vt 0.625000 1.000000
vt 0.187500 1.000000
vt 0.593750 1.000000
vt 0.156250 1.000000
vt 1.000000 1.000000
vt 0.343750 1.000000
vt 0.375000 1.000000
vt 0.375000 1.000000
vt 0.343750 1.000000
vt 0.875000 1.000000
vt 0.843750 1.000000
vt 0.031250 1.000000
vt 0.000000 1.000000
vt 0.406250 1.000000
vt 0.812500 1.000000
vt 0.781250 1.000000
vt 0.750000 1.000000
vt 0.312500 1.000000
vt 0.718750 1.000000
vt 0.281250 1.000000
vt 0.687500 1.000000
vt 0.250000 1.000000
vt 0.656250 1.000000
vt 0.218750 1.000000
vt 0.625000 1.000000
vt 0.187500 1.000000
vt 0.593750 1.000000
vt 0.156250 1.000000
vt 0.562500 1.000000
vt 1.000000 1.000000
vt 0.968750 1.000000
vt 0.125000 1.000000
vt 0.531250 1.000000
vt 0.937500 1.000000
vt 0.093750 1.000000
vt 0.500000 1.000000
vt 0.906250 1.000000
vt 0.062500 1.000000
vt 0.250000 1.000000
vt 0.281250 1.000000
vt 0.281250 1.000000
vt 0.250000 1.000000
vt 0.781250 1.000000
vt 0.750000 1.000000
vt 0.312500 1.000000
vt 0.718750 1.000000
vt 0.687500 1.000000
vt 0.656250 1.000000
vt 0.218750 1.000000
vt 0.625000 1.000000
vt 0.187500 1.000000
vt 0.593750 1.000000
vt 0.156250 1.000000
vt 0.562500 1.000000
vt 1.000000 1.000000
vt 0.968750 1.000000
vt 0.125000 1.000000
vt 0.531250 1.000000
vt 0.937500 1.000000
vt 0.093750 1.000000
vt 0.500000 1.000000
vt 0.906250 1.000000
vt 0.062500 1.000000
vt 0.468750 1.000000
vt 0.875000 1.000000
vt 0.031250 1.000000
vt 0.437500 1.000000
vt 0.843750 1.000000
vt 0.000000 1.000000
vt 0.406250 1.000000
vt 0.812500 1.000000
vt 0.296822 0.485388
vt 0.250000 0.490000
vt 0.203178 0.485388
vt 0.158156 0.471731
vt 0.116663 0.449553
vt 0.080294 0.419706
vt 0.050447 0.383337
vt 0.028269 0.341844
vt 0.014612 0.296822
vt 0.010000 0.250000
vt 0.014612 0.203178
vt 0.028269 0.158156
vt 0.050447 0.116663
vt 0.080294 0.080294
vt 0.116663 0.050447
vt 0.158156 0.028269
vt 0.203178 0.014612
vt 0.250000 0.010000
vt 0.296822 0.014612
vt 0.341844 0.028269
vt 0.383337 0.050447
vt 0.419706 0.080294
vt 0.449553 0.116663
vt 0.471731 0.158156
vt 0.485388 0.203178
vt 0.490000 0.250000
vt 0.485388 0.296822
vt 0.471731 0.341844
vt 0.449553 0.383337
vt 0.419706 0.419706
vt 0.383337 0.449553
vt 0.341844 0.471731
vt 0.687500 1.000000
vt 0.656250 1.000000
vt 0.218750 1.000000
vt 0.625000 1.000000
vt 0.187500 1.000000
vt 0.593750 1.000000
vt 0.156250 1.000000
vt 0.562500 1.000000
vt 1.000000 1.000000
vt 0.968750 1.000000
vt 0.125000 1.000000
vt 0.531250 1.000000
vt 0.937500 1.000000
vt 0.093750 1.000000
vt 0.500000 1.000000
vt 0.906250 1.000000
vt 0.062500 1.000000
vt 0.468750 1.000000
vt 0.875000 1.000000
vt 0.031250 1.000000
vt 0.437500 1.000000
vt 0.843750 1.000000
vt 0.000000 1.000000
vt 0.406250 1.000000
vt 0.812500 1.000000
vt 0.375000 1.000000
vt 0.781250 1.000000
vt 0.343750 1.000000
vt 0.750000 1.000000
vt 0.312500 1.000000
vt 0.718750 1.000000
vn -0.1027 0.1377 -0.9851
vn 0.4586 0.1383 -0.8778
vn 0.2964 0.1383 -0.9450
vn 0.7689 0.1377 -0.6243
vn 0.6243 0.1377 -0.7689
vn 0.9506 0.1375 -0.2783
vn 0.8689 0.1375 -0.4754
vn 0.9844 0.1374 0.1097
vn 0.9844 0.1374 -0.1097
vn 0.8689 0.1375 0.4754
vn 0.9506 0.1375 0.2783
vn 0.6243 0.1377 0.7689
vn 0.7689 0.1377 0.6243
vn 0.2964 0.1383 0.9450
vn 0.4586 0.1383 0.8778
vn -0.1027 0.1377 0.9851
vn 0.1026 0.1377 0.9851
vn -0.4783 0.1374 0.8674
vn -0.2751 0.1374 0.9515
vn -0.7698 0.1377 0.6233
vn -0.6233 0.1377 0.7698
vn -0.9483 0.1379 0.2857
vn -0.8726 0.1379 0.4686
vn -0.9844 0.1374 -0.1098
vn -0.9844 0.1374 0.1098
vn -0.8726 0.1379 -0.4686
vn -0.9483 0.1379 -0.2857
vn -0.6233 0.1377 -0.7698
vn -0.7698 0.1377 -0.6233
vn -0.2751 0.1374 -0.9515
vn -0.4783 0.1374 -0.8674
vn 0.1027 0.1377 -0.9851
vn 0.0978 -0.0000 -0.9952
vn 0.2904 -0.0000 -0.9569
vn 0.4714 0.0000 -0.8819
vn 0.6344 -0.0000 -0.7730
vn 0.7730 -0.0000 -0.6344
vn 0.8819 -0.0000 -0.4714
vn 0.9569 -0.0000 -0.2903
vn 0.9952 -0.0000 -0.0980
vn 0.9952 0.0000 0.0980
vn 0.9569 0.0000 0.2903
vn 0.8819 0.0000 0.4714
vn 0.7730 0.0000 0.6344
vn 0.6344 0.0000 0.7730
vn 0.4713 0.0000 0.8820
vn 0.2903 0.0000 0.9569
vn 0.0980 0.0000 0.9952
vn -0.0980 0.0000 0.9952
vn -0.2903 0.0000 0.9569
vn -0.4713 0.0000 0.8820
vn -0.6344 0.0000 0.7730
vn -0.7730 0.0000 0.6344
vn -0.8819 0.0000 0.4714
vn -0.9569 0.0000 0.2903
vn -0.9952 0.0000 0.0980
vn -0.9952 -0.0000 -0.0980
vn -0.9569 -0.0000 -0.2903
vn -0.8819 -0.0000 -0.4714
vn -0.7730 -0.0000 -0.6344
vn -0.6344 -0.0000 -0.7730
vn -0.4714 0.0000 -0.8819
vn 0.8807 0.0727 -0.4680
vn -0.2904 -0.0000 -0.9569
vn -0.0978 -0.0000 -0.9952
vn 0.0000 -1.0000 0.0000
vn 0.2472 -0.5156 0.8204
vn 0.2886 -0.1488 0.9458
vn -0.9951 -0.0152 0.0974
vn 0.2887 0.1464 -0.9462
vn 0.8807 -0.0733 0.4679
vn -0.6321 -0.1202 0.7655
vn -0.6321 0.1186 -0.7657
vn 0.9564 0.0449 -0.2884
vn 0.0975 -0.1547 0.9831
vn -0.9951 0.0152 -0.0974
vn 0.4692 0.1351 -0.8727
vn 0.7711 -0.0987 0.6291
vn -0.7711 -0.0987 0.6291
vn -0.4692 0.1351 -0.8727
vn 0.9951 0.0152 -0.0974
vn -0.0975 -0.1547 0.9831
vn -0.9565 0.0449 -0.2884
vn 0.6321 0.1186 -0.7657
vn 0.6321 -0.1202 0.7655
vn -0.8807 -0.0733 0.4679
vn -0.2887 0.1464 -0.9462
vn 0.9951 -0.0152 0.0974
vn -0.2886 -0.1488 0.9458
vn -0.8807 0.0727 -0.4680
vn 0.7711 0.0976 -0.6292
vn 0.4691 -0.1371 0.8724
vn -0.9564 -0.0451 0.2884
vn 0.0975 0.1521 -0.9835
vn -0.0975 0.1521 -0.9835
vn 0.9564 -0.0451 0.2884
vn -0.4691 -0.1371 0.8724
vn -0.7711 0.0976 -0.6292
vn -0.2753 -0.9119 0.3043
vn 0.2490 0.5614 -0.7892
vn -0.5708 0.4735 -0.6708
vn 0.0825 -0.5288 0.8447
vn 0.4125 0.5269 -0.7431
vn -0.4125 0.5269 -0.7431
vn -0.0825 -0.5288 0.8447
vn 0.5708 0.4735 -0.6708
vn -0.2490 0.5614 -0.7892
vn -0.2472 -0.5156 0.8204
vn 0.7180 0.3996 -0.5698
vn -0.0832 0.5782 -0.8116
vn -0.4101 -0.4879 0.7706
vn 0.8455 0.3050 -0.4383
vn -0.5685 -0.4433 0.6930
vn 0.9413 0.1915 -0.2779
vn -0.7164 -0.3792 0.5856
vn 0.9933 0.0652 -0.0956
vn -0.8447 -0.2937 0.4476
vn 0.9933 -0.0647 0.0960
vn -0.9411 -0.1872 0.2816
vn 0.9411 -0.1873 0.2816
vn -0.9933 -0.0647 0.0960
vn 0.8447 -0.2937 0.4476
vn -0.9933 0.0652 -0.0956
vn 0.7164 -0.3792 0.5856
vn -0.9413 0.1915 -0.2779
vn 0.5685 -0.4433 0.6930
vn -0.8455 0.3050 -0.4383
vn 0.4101 -0.4879 0.7706
vn 0.0832 0.5782 -0.8116
vn -0.7180 0.3996 -0.5698
vn -0.7426 -0.6504 -0.1598
vn 0.7578 0.6268 -0.1811
vn -0.0936 0.9585 -0.2691
vn -0.4507 -0.8474 0.2806
vn 0.8721 0.4697 -0.1375
vn -0.6130 -0.7508 0.2460
vn 0.9528 0.2911 -0.0865
vn -0.7555 -0.6234 0.2015
vn 0.9947 0.0986 -0.0298
vn -0.8709 -0.4683 0.1490
vn 0.9947 -0.0986 0.0303
vn -0.9525 -0.2907 0.0910
vn 0.9525 -0.2907 0.0910
vn -0.9947 -0.0986 0.0303
vn 0.8709 -0.4682 0.1490
vn -0.9947 0.0986 -0.0298
vn 0.7555 -0.6234 0.2015
vn -0.9528 0.2911 -0.0865
vn 0.6130 -0.7508 0.2460
vn -0.8721 0.4697 -0.1375
vn 0.4507 -0.8474 0.2806
vn 0.0936 0.9585 -0.2691
vn -0.7578 0.6268 -0.1811
vn 0.2753 -0.9119 0.3043
vn 0.2781 0.9246 -0.2604
vn -0.6164 0.7572 -0.2163
vn 0.0925 -0.9441 0.3163
vn 0.4544 0.8571 -0.2428
vn -0.4544 0.8571 -0.2428
vn -0.0925 -0.9441 0.3163
vn 0.6164 0.7572 -0.2163
vn -0.2781 0.9246 -0.2604
vn -0.9952 -0.0651 -0.0733
vn 0.9943 0.1029 0.0286
vn -0.8627 -0.4903 -0.1244
vn 0.9943 -0.1033 -0.0279
vn -0.9490 -0.3049 -0.0799
vn 0.9490 -0.3049 -0.0799
vn -0.9943 -0.1033 -0.0279
vn 0.8627 -0.4903 -0.1244
vn -0.9943 0.1029 0.0286
vn 0.7426 -0.6504 -0.1598
vn -0.9495 0.3016 0.0862
vn 0.5976 -0.7799 -0.1861
vn -0.8645 0.4824 0.1411
vn 0.4362 -0.8764 -0.2041
vn 0.0905 0.9513 0.2947
vn -0.7464 0.6377 0.1901
vn 0.2650 -0.9400 -0.2150
vn 0.2694 0.9202 0.2840
vn -0.6031 0.7634 0.2311
vn 0.0888 -0.9714 -0.2201
vn 0.4420 0.8577 0.2627
vn -0.4420 0.8577 0.2627
vn -0.0888 -0.9714 -0.2201
vn 0.6031 0.7634 0.2311
vn -0.2694 0.9202 0.2840
vn -0.2650 -0.9400 -0.2150
vn 0.7464 0.6377 0.1901
vn -0.0905 0.9513 0.2947
vn -0.4362 -0.8764 -0.2041
vn 0.8645 0.4824 0.1411
vn -0.5976 -0.7799 -0.1861
vn 0.9495 0.3016 0.0862
vn -0.0000 -0.7475 0.6643
vn 0.8819 -0.3131 -0.3523
vn -0.9952 0.0651 0.0733
vn 0.7730 -0.4214 -0.4742
vn -0.9569 0.1928 0.2170
vn 0.6344 -0.5135 -0.5778
vn -0.8819 0.3131 0.3524
vn 0.4714 -0.5858 -0.6592
vn 0.0980 0.6611 0.7439
vn -0.7730 0.4214 0.4742
vn 0.2902 -0.6357 -0.7153
vn 0.2903 0.6357 0.7153
vn -0.6344 0.5135 0.5778
vn 0.0980 -0.6611 -0.7439
vn 0.4714 0.5858 0.6592
vn -0.4714 0.5858 0.6592
vn -0.0980 -0.6611 -0.7439
vn 0.6344 0.5135 0.5778
vn -0.2903 0.6357 0.7153
vn -0.2902 -0.6357 -0.7153
vn 0.7730 0.4214 0.4742
vn -0.0980 0.6611 0.7439
vn -0.4714 -0.5858 -0.6592
vn 0.8819 0.3132 0.3524
vn -0.6344 -0.5135 -0.5778
vn 0.9569 0.1928 0.2170
vn -0.7730 -0.4214 -0.4742
vn 0.9952 0.0651 0.0733
vn -0.8819 -0.3131 -0.3524
vn 0.9952 -0.0651 -0.0733
vn -0.9569 -0.1928 -0.2170
vn 0.9569 -0.1928 -0.2170
usemtl mainUmbrella.001
s 1
f 449/520/476 481/521/476 450/522/476
f 450/522/477 481/521/477 451/523/477
f 451/523/478 481/521/478 452/524/478
f 452/524/479 481/521/479 453/525/479
f 453/525/480 481/521/480 454/526/480
f 454/526/481 481/521/481 455/527/481
f 455/527/482 481/521/482 456/528/482
f 456/528/483 481/521/483 457/529/483
f 457/529/484 481/521/484 458/530/484
f 458/530/485 481/521/485 459/531/485
f 459/531/486 481/521/486 460/532/486
f 460/532/487 481/521/487 461/533/487
f 461/533/488 481/521/488 462/534/488
f 462/534/489 481/521/489 463/535/489
f 463/535/490 481/521/490 464/536/490
f 464/536/491 481/521/491 465/537/491
f 465/537/492 481/521/492 466/538/492
f 466/538/493 481/521/493 467/539/493
f 467/539/494 481/521/494 468/540/494
f 468/540/495 481/521/495 469/541/495
f 469/541/496 481/521/496 470/542/496
f 470/542/497 481/521/497 471/543/497
f 471/543/498 481/521/498 472/544/498
f 472/544/499 481/521/499 473/545/499
f 473/545/500 481/521/500 474/546/500
f 474/546/501 481/521/501 475/547/501
f 475/547/502 481/521/502 476/548/502
f 476/548/503 481/521/503 477/549/503
f 477/549/504 481/521/504 478/550/504
f 478/550/505 481/521/505 479/551/505
f 479/551/506 481/521/506 480/552/506
f 480/552/507 481/521/507 449/520/507
usemtl handelUmbrella.001
f 482/553/508 483/554/508 485/555/508 484/556/508
f 484/556/509 485/555/509 487/557/509 486/558/509
f 486/558/510 487/557/510 489/559/510 488/560/510
f 488/560/511 489/559/511 491/561/511 490/562/511
f 490/562/512 491/561/512 493/563/512 492/564/512
f 492/564/513 493/563/513 495/565/513 494/566/513
f 494/566/514 495/565/514 497/567/514 496/568/514
f 496/568/515 497/567/515 499/569/515 498/570/515
f 498/570/516 499/569/516 501/571/516 500/572/516
f 500/572/517 501/571/517 503/573/517 502/574/517
f 502/574/518 503/573/518 505/575/518 504/576/518
f 504/576/519 505/575/519 507/577/519 506/578/519
f 506/578/520 507/577/520 509/579/520 508/580/520
f 508/580/521 509/579/521 511/581/521 510/582/521
f 510/582/522 511/581/522 513/583/522 512/584/522
f 512/584/523 513/583/523 515/585/523 514/586/523
f 514/586/524 515/585/524 517/587/524 516/588/524
f 516/588/525 517/587/525 519/589/525 518/590/525
f 518/590/526 519/589/526 521/591/526 520/592/526
f 520/592/527 521/591/527 523/593/527 522/594/527
f 522/594/528 523/593/528 525/595/528 524/596/528
f 524/596/529 525/595/529 527/597/529 526/598/529
f 526/598/530 527/597/530 529/599/530 528/600/530
f 528/600/531 529/599/531 531/601/531 530/602/531
f 530/602/532 531/601/532 533/603/532 532/604/532
f 532/604/533 533/603/533 535/605/533 534/606/533
f 534/606/534 535/605/534 537/607/534 536/608/534
f 536/608/535 537/607/535 539/609/535 538/610/535
f 538/610/536 539/609/536 541/611/536 540/612/536
f 540/612/537 541/611/537 543/613/537 542/614/537
f 495/565/538 493/563/538 551/615/538 552/616/538
f 542/614/539 543/613/539 545/617/539 544/618/539
f 544/618/540 545/617/540 483/619/540 482/620/540
f 482/621/541 484/622/541 486/623/541 488/624/541 490/625/541 492/626/541 494/627/541 496/628/541 498/629/541 500/630/541 502/631/541 504/632/541 506/633/541 508/634/541 510/635/541 512/636/541 514/637/541 516/638/541 518/639/541 520/640/541 522/641/541 524/642/541 526/643/541 528/644/541 530/645/541 532/646/541 534/647/541 536/648/541 538/649/541 540/650/541 542/651/541 544/652/541
f 561/653/542 560/654/542 592/655/542 593/656/542
f 513/583/543 511/581/543 560/654/543 561/653/543
f 531/601/544 529/599/544 569/657/544 570/658/544
f 487/557/545 485/555/545 547/659/545 548/660/545
f 505/575/546 503/573/546 556/661/546 557/662/546
f 523/593/547 521/591/547 565/663/547 566/664/547
f 541/611/548 539/609/548 574/665/548 575/666/548
f 497/567/549 495/565/549 552/616/549 553/667/549
f 515/585/550 513/583/550 561/653/550 562/668/550
f 533/603/551 531/601/551 570/658/551 571/669/551
f 489/559/552 487/557/552 548/660/552 549/670/552
f 507/577/553 505/575/553 557/662/553 558/671/553
f 525/595/554 523/593/554 566/664/554 567/672/554
f 543/613/555 541/611/555 575/666/555 576/673/555
f 499/569/556 497/567/556 553/667/556 554/674/556
f 517/587/557 515/585/557 562/668/557 563/675/557
f 535/605/558 533/603/558 571/669/558 572/676/558
f 491/561/559 489/559/559 549/670/559 550/677/559
f 509/579/560 507/577/560 558/671/560 559/678/560
f 527/597/561 525/595/561 567/672/561 568/679/561
f 545/617/562 543/613/562 576/673/562 577/680/562
f 501/571/563 499/569/563 554/674/563 555/681/563
f 519/589/564 517/587/564 563/675/564 564/682/564
f 537/607/565 535/605/565 572/676/565 573/683/565
f 493/563/566 491/561/566 550/677/566 551/615/566
f 511/581/567 509/579/567 559/678/567 560/654/567
f 529/599/568 527/597/568 568/679/568 569/657/568
f 485/555/569 483/554/569 546/684/569 547/659/569
f 483/619/570 545/617/570 577/680/570 546/685/570
f 503/573/571 501/571/571 555/681/571 556/661/571
f 521/591/572 519/589/572 564/682/572 565/663/572
f 539/609/573 537/607/573 573/683/573 574/665/573
f 596/686/574 595/687/574 627/688/574 628/689/574
f 548/660/575 547/659/575 579/690/575 580/691/575
f 575/666/576 574/665/576 606/692/576 607/693/576
f 562/668/577 561/653/577 593/656/577 594/694/577
f 549/670/578 548/660/578 580/691/578 581/695/578
f 576/673/579 575/666/579 607/693/579 608/696/579
f 563/675/580 562/668/580 594/694/580 595/687/580
f 550/677/581 549/670/581 581/695/581 582/697/581
f 577/680/582 576/673/582 608/696/582 609/698/582
f 564/682/583 563/675/583 595/687/583 596/686/583
f 551/615/584 550/677/584 582/697/584 583/699/584
f 546/685/585 577/680/585 609/698/585 578/700/585
f 565/663/586 564/682/586 596/686/586 597/701/586
f 552/616/587 551/615/587 583/699/587 584/702/587
f 566/664/588 565/663/588 597/701/588 598/703/588
f 553/667/589 552/616/589 584/702/589 585/704/589
f 567/672/590 566/664/590 598/703/590 599/705/590
f 554/674/591 553/667/591 585/704/591 586/706/591
f 568/679/592 567/672/592 599/705/592 600/707/592
f 555/681/593 554/674/593 586/706/593 587/708/593
f 569/657/594 568/679/594 600/707/594 601/709/594
f 556/661/595 555/681/595 587/708/595 588/710/595
f 570/658/596 569/657/596 601/709/596 602/711/596
f 557/662/597 556/661/597 588/710/597 589/712/597
f 571/669/598 570/658/598 602/711/598 603/713/598
f 558/671/599 557/662/599 589/712/599 590/714/599
f 572/676/600 571/669/600 603/713/600 604/715/600
f 559/678/601 558/671/601 590/714/601 591/716/601
f 573/683/602 572/676/602 604/715/602 605/717/602
f 560/654/603 559/678/603 591/716/603 592/655/603
f 547/659/604 546/684/604 578/718/604 579/690/604
f 574/665/605 573/683/605 605/717/605 606/692/605
f 631/719/606 630/720/606 662/721/606 663/722/606
f 583/699/607 582/697/607 614/723/607 615/724/607
f 578/700/608 609/698/608 641/725/608 610/726/608
f 597/701/609 596/686/609 628/689/609 629/727/609
f 584/702/610 583/699/610 615/724/610 616/728/610
f 598/703/611 597/701/611 629/727/611 630/720/611
f 585/704/612 584/702/612 616/728/612 617/729/612
f 599/705/613 598/703/613 630/720/613 631/719/613
f 586/706/614 585/704/614 617/729/614 618/730/614
f 600/707/615 599/705/615 631/719/615 632/731/615
f 587/708/616 586/706/616 618/730/616 619/732/616
f 601/709/617 600/707/617 632/731/617 633/733/617
f 588/710/618 587/708/618 619/732/618 620/734/618
f 602/711/619 601/709/619 633/733/619 634/735/619
f 589/712/620 588/710/620 620/734/620 621/736/620
f 603/713/621 602/711/621 634/735/621 635/737/621
f 590/714/622 589/712/622 621/736/622 622/738/622
f 604/715/623 603/713/623 635/737/623 636/739/623
f 591/716/624 590/714/624 622/738/624 623/740/624
f 605/717/625 604/715/625 636/739/625 637/741/625
f 592/655/626 591/716/626 623/740/626 624/742/626
f 579/690/627 578/718/627 610/743/627 611/744/627
f 606/692/628 605/717/628 637/741/628 638/745/628
f 593/656/629 592/655/629 624/742/629 625/746/629
f 580/691/630 579/690/630 611/744/630 612/747/630
f 607/693/631 606/692/631 638/745/631 639/748/631
f 594/694/632 593/656/632 625/746/632 626/749/632
f 581/695/633 580/691/633 612/747/633 613/750/633
f 608/696/634 607/693/634 639/748/634 640/751/634
f 595/687/635 594/694/635 626/749/635 627/688/635
f 582/697/636 581/695/636 613/750/636 614/723/636
f 609/698/637 608/696/637 640/751/637 641/725/637
f 666/752/638 665/753/638 697/754/638 698/755/638
f 618/730/639 617/729/639 649/756/639 650/757/639
f 632/731/640 631/719/640 663/722/640 664/758/640
f 619/732/641 618/730/641 650/757/641 651/759/641
f 633/733/642 632/731/642 664/758/642 665/753/642
f 620/734/643 619/732/643 651/759/643 652/760/643
f 634/735/644 633/733/644 665/753/644 666/752/644
f 621/736/645 620/734/645 652/760/645 653/761/645
f 635/737/646 634/735/646 666/752/646 667/762/646
f 622/738/647 621/736/647 653/761/647 654/763/647
f 636/739/648 635/737/648 667/762/648 668/764/648
f 623/740/649 622/738/649 654/763/649 655/765/649
f 637/741/650 636/739/650 668/764/650 669/766/650
f 624/742/651 623/740/651 655/765/651 656/767/651
f 611/744/652 610/743/652 642/768/652 643/769/652
f 638/745/653 637/741/653 669/766/653 670/770/653
f 625/746/654 624/742/654 656/767/654 657/771/654
f 612/747/655 611/744/655 643/769/655 644/772/655
f 639/748/656 638/745/656 670/770/656 671/773/656
f 626/749/657 625/746/657 657/771/657 658/774/657
f 613/750/658 612/747/658 644/772/658 645/775/658
f 640/751/659 639/748/659 671/773/659 672/776/659
f 627/688/660 626/749/660 658/774/660 659/777/660
f 614/723/661 613/750/661 645/775/661 646/778/661
f 641/725/662 640/751/662 672/776/662 673/779/662
f 628/689/663 627/688/663 659/777/663 660/780/663
f 615/724/664 614/723/664 646/778/664 647/781/664
f 610/726/665 641/725/665 673/779/665 642/782/665
f 629/727/666 628/689/666 660/780/666 661/783/666
f 616/728/667 615/724/667 647/781/667 648/784/667
f 630/720/668 629/727/668 661/783/668 662/721/668
f 617/729/669 616/728/669 648/784/669 649/756/669
f 675/785/670 674/786/670 705/787/670 704/788/670 703/789/670 702/790/670 701/791/670 700/792/670 699/793/670 698/794/670 697/795/670 696/796/670 695/797/670 694/798/670 693/799/670 692/800/670 691/801/670 690/802/670 689/803/670 688/804/670 687/805/670 686/806/670 685/807/670 684/808/670 683/809/670 682/810/670 681/811/670 680/812/670 679/813/670 678/814/670 677/815/670 676/816/670
f 653/761/671 652/760/671 684/817/671 685/818/671
f 667/762/672 666/752/672 698/755/672 699/819/672
f 654/763/673 653/761/673 685/818/673 686/820/673
f 668/764/674 667/762/674 699/819/674 700/821/674
f 655/765/675 654/763/675 686/820/675 687/822/675
f 669/766/676 668/764/676 700/821/676 701/823/676
f 656/767/677 655/765/677 687/822/677 688/824/677
f 643/769/678 642/768/678 674/825/678 675/826/678
f 670/770/679 669/766/679 701/823/679 702/827/679
f 657/771/680 656/767/680 688/824/680 689/828/680
f 644/772/681 643/769/681 675/826/681 676/829/681
f 671/773/682 670/770/682 702/827/682 703/830/682
f 658/774/683 657/771/683 689/828/683 690/831/683
f 645/775/684 644/772/684 676/829/684 677/832/684
f 672/776/685 671/773/685 703/830/685 704/833/685
f 659/777/686 658/774/686 690/831/686 691/834/686
f 646/778/687 645/775/687 677/832/687 678/835/687
f 673/779/688 672/776/688 704/833/688 705/836/688
f 660/780/689 659/777/689 691/834/689 692/837/689
f 647/781/690 646/778/690 678/835/690 679/838/690
f 642/782/691 673/779/691 705/836/691 674/839/691
f 661/783/692 660/780/692 692/837/692 693/840/692
f 648/784/693 647/781/693 679/838/693 680/841/693
f 662/721/694 661/783/694 693/840/694 694/842/694
f 649/756/695 648/784/695 680/841/695 681/843/695
f 663/722/696 662/721/696 694/842/696 695/844/696
f 650/757/697 649/756/697 681/843/697 682/845/697
f 664/758/698 663/722/698 695/844/698 696/846/698
f 651/759/699 650/757/699 682/845/699 683/847/699
f 665/753/700 664/758/700 696/846/700 697/754/700
f 652/760/701 651/759/701 683/847/701 684/817/701
